<svg width="160" height="57" viewBox="0 0 160 57" fill="none" xmlns="http://www.w3.org/2000/svg">
<path d="M83.2155 57C98.7104 57 111.271 44.2401 111.271 28.5C111.271 12.7599 98.7104 0 83.2155 0C67.7205 0 55.1594 12.7599 55.1594 28.5C55.1594 44.2401 67.7205 57 83.2155 57Z" fill="white"/>
<path d="M109.951 27.2833C109.945 27.1577 109.939 27.0321 109.932 26.908C108.732 26.3254 107.484 25.8442 106.234 25.3888C105.534 25.133 104.827 24.9091 104.116 24.7139C104.135 24.8213 104.156 24.9287 104.173 25.0377C104.351 26.165 104.448 27.3211 104.448 28.4999C104.448 29.9905 104.299 31.4462 104.016 32.852C103.997 32.9518 103.97 33.0487 103.949 33.147C106.008 32.6114 107.986 31.8714 109.874 30.9029C109.884 30.7879 109.894 30.6744 109.903 30.5594C109.954 29.8785 109.979 29.1915 109.979 28.4984C109.978 28.0929 109.967 27.6873 109.951 27.2833Z" fill="#2B1F48"/>
<path d="M100.618 40.8674C101.667 42.6787 102.565 44.5551 103.272 46.5162C106.958 42.2777 109.362 36.8664 109.876 30.9028C107.989 31.8728 106.01 32.6128 103.952 33.1469C103.342 35.9676 102.192 38.5794 100.618 40.8674Z" fill="#A2186A"/>
<path d="M100.868 16.5015C102.471 18.9348 103.594 21.7191 104.116 24.7138C104.828 24.9105 105.534 25.1345 106.234 25.3887C107.485 25.8442 108.732 26.3254 109.931 26.9079C109.58 20.7037 107.183 15.0564 103.416 10.6499C102.771 12.6852 101.92 14.6327 100.868 16.5015Z" fill="#293980"/>
<path d="M78.7823 7.3529C79.3275 5.28736 80.0649 3.29293 80.987 1.36206C75.015 1.85234 69.5956 4.331 65.371 8.14583C67.3284 8.82829 69.2038 9.70899 71.0003 10.7819C73.3033 9.14607 75.937 7.95819 78.7823 7.3529Z" fill="#009B65"/>
<path d="M62.2439 24.6459C62.7325 21.8888 63.735 19.3148 65.1487 17.0268C64.0627 15.1792 63.1749 13.2392 62.4613 11.2161C58.992 15.5015 56.7873 20.884 56.4253 26.7735C57.4234 26.3059 58.4482 25.8913 59.485 25.4994C60.3952 25.1543 61.3158 24.8714 62.2439 24.6459Z" fill="#BBCC11"/>
<path d="M95.1526 10.6392C96.9595 9.58596 98.8603 8.7204 100.858 8.03794C96.4962 4.14593 90.8817 1.66879 84.7072 1.3147C85.6516 3.19563 86.377 5.17492 86.9357 7.23139C89.9403 7.77615 92.7274 8.95798 95.1526 10.6392Z" fill="#0E6EB9"/>
<path d="M62.4451 33.3588C60.3954 32.8685 58.4171 32.1634 56.5044 31.2615C57.066 36.9179 59.3317 42.0644 62.7728 46.1606C63.4715 44.1768 64.3906 42.3004 65.4855 40.5073C64.0718 38.366 63.0305 35.9509 62.4451 33.3588Z" fill="#FFA921"/>
<path d="M71.6632 46.6707C70.6383 47.3153 69.5851 47.916 68.4977 48.4684C67.7186 48.8663 66.9112 49.1826 66.1008 49.4928C70.1244 52.8733 75.137 55.0811 80.6323 55.6062C79.7624 53.692 79.101 51.687 78.6064 49.6063C76.0979 49.0494 73.7546 48.0416 71.6632 46.6707Z" fill="#DE3521"/>
<path d="M86.9643 49.7621C85.7339 49.9876 84.4692 50.1102 83.1747 50.1102C81.7044 50.1102 80.2698 49.9588 78.883 49.6698C78.7906 49.6501 78.6998 49.6259 78.6089 49.6047C79.102 51.6869 79.7634 53.6904 80.6348 55.6047C80.7406 55.6152 80.8448 55.6243 80.9506 55.6334C81.685 55.6939 82.4254 55.7272 83.1747 55.7272C83.772 55.7272 84.3634 55.706 84.9503 55.6667C85.0501 55.6606 85.1514 55.6546 85.2512 55.647C86.1033 53.7207 86.7811 51.7429 87.2593 49.7061C87.161 49.7288 87.0626 49.744 86.9643 49.7621Z" fill="#BC1D1E"/>
<path d="M98.1083 48.7468C97.8357 48.6378 96.51 48.0144 96.1152 47.8192C95.5566 47.4969 95.0054 47.1609 94.4632 46.8159C92.2943 48.199 89.8617 49.1947 87.2607 49.7092C86.7826 51.746 86.1048 53.7238 85.2527 55.6501C90.8955 55.2113 96.0482 52.9959 100.173 49.5564C99.4803 49.2976 98.7951 49.0192 98.1083 48.7468Z" fill="#D01738"/>
<path d="M100.617 40.8677C100.57 40.9358 100.522 41.0039 100.474 41.072C98.9102 43.2873 96.9454 45.1894 94.6856 46.6709C94.6111 46.7193 94.5381 46.7677 94.4636 46.8161C95.0073 47.1612 96.1156 47.8194 96.1156 47.8194C96.5104 48.0146 97.8377 48.6396 98.1088 48.747C98.7955 49.0209 99.4808 49.2978 100.172 49.5566C100.252 49.49 100.331 49.4219 100.41 49.3538C101.356 48.5458 102.247 47.6741 103.074 46.7435C103.139 46.6694 103.205 46.5937 103.27 46.518C102.564 44.5554 101.666 42.679 100.617 40.8677Z" fill="#871927"/>
<path d="M103.234 10.4398C102.557 9.66504 101.838 8.92962 101.08 8.23808C101.007 8.17149 100.932 8.10491 100.858 8.03833C98.8601 8.72079 96.9593 9.58787 95.1523 10.6396C95.2268 10.691 95.2983 10.7455 95.3728 10.7984C97.4583 12.2844 99.2712 14.1396 100.715 16.2733C100.765 16.3489 100.817 16.4246 100.868 16.5003C101.92 14.6329 102.77 12.6839 103.417 10.6501C103.356 10.5805 103.295 10.5109 103.234 10.4398Z" fill="#28356A"/>
<path d="M65.3701 8.14575C65.3001 8.20931 65.2286 8.27286 65.1586 8.33642C64.2603 9.16415 63.4202 10.0539 62.6396 10.9982C62.58 11.0708 62.5189 11.1434 62.4594 11.2161C63.1729 13.2393 64.0607 15.1792 65.1467 17.0268C65.1943 16.9497 65.2435 16.8725 65.2927 16.7953C66.7451 14.5119 68.6071 12.525 70.7761 10.9422C70.8505 10.8877 70.925 10.8347 70.9995 10.7803C69.203 9.70891 67.329 8.8267 65.3701 8.14575Z" fill="#07973D"/>
<path d="M84.7063 1.31493C84.6035 1.30887 84.4993 1.30434 84.3965 1.29828C83.9913 1.28012 83.5831 1.26953 83.1735 1.26953C82.5389 1.26953 81.9088 1.29374 81.2846 1.33763C81.1848 1.34519 81.085 1.35125 80.9867 1.36032C80.0646 3.29119 79.3272 5.28713 78.782 7.35117C78.8758 7.33149 78.9697 7.31334 79.0635 7.29518C80.3938 7.03036 81.7672 6.88812 83.175 6.88812C84.3607 6.88812 85.5212 6.99102 86.6533 7.18017C86.7486 7.1953 86.8425 7.21498 86.9378 7.23162C86.3762 5.17667 85.6508 3.19586 84.7063 1.31493Z" fill="#085D51"/>
<path d="M62.3784 33.0654C62.0671 31.593 61.8987 30.0677 61.8987 28.5C61.8987 27.2894 62.0015 26.103 62.1907 24.9454C62.2071 24.844 62.2265 24.7442 62.2428 24.6443C61.3148 24.8713 60.3942 25.1527 59.4825 25.4993C58.4457 25.8912 57.4209 26.3058 56.4228 26.7734C56.4153 26.8823 56.4079 26.9913 56.4019 27.1002C56.3796 27.5633 56.3677 28.0309 56.3677 28.5C56.3677 29.3307 56.4064 30.1509 56.4779 30.962C56.4869 31.0619 56.4943 31.1617 56.5047 31.2616C58.4174 32.1635 60.3957 32.8671 62.4454 33.3589C62.4231 33.2606 62.3993 33.1637 62.3784 33.0654Z" fill="#B78B13"/>
<path d="M71.4526 46.5327C69.1616 44.9937 67.1818 43.0175 65.6281 40.7189C65.5804 40.6493 65.5328 40.5797 65.4851 40.5085C64.3902 42.3017 63.4711 44.1781 62.7725 46.1619C62.8365 46.2391 62.9021 46.3163 62.9676 46.3919C63.8688 47.4421 64.849 48.4197 65.8977 49.3185C65.9663 49.3775 66.0333 49.4365 66.1018 49.4941C66.9107 49.1838 67.7196 48.8661 68.4987 48.4696C69.5846 47.9158 70.6378 47.3165 71.6642 46.6719C71.5927 46.625 71.5212 46.5796 71.4526 46.5327Z" fill="#E14916"/>
<path d="M83.9151 32.3692L86.3656 29.8799L92.6132 23.535C92.9066 23.2369 93.3833 23.2369 93.6768 23.535L96.0096 25.9047C96.1704 25.7277 96.2717 25.4916 96.2717 25.2313V16.9918C96.2717 16.441 95.8323 15.9946 95.2901 15.9946H87.1789C86.9078 15.9946 86.662 16.1066 86.4848 16.2867L88.4362 18.269L88.9874 18.8289C89.327 19.1739 89.327 19.7323 88.9874 20.0773L83.2403 25.9153C82.9007 26.2603 82.351 26.2603 82.0113 25.9153L79.4685 23.3322C79.1616 23.2157 78.8026 23.2808 78.5554 23.532L74.5318 27.6192L71.9577 30.234L70.3548 31.8623C69.3493 32.8837 69.3493 34.5407 70.3548 35.5636C71.3604 36.585 72.993 36.585 73.9985 35.5636L74.9906 34.5573L78.5986 30.8908C78.9456 30.5382 79.5087 30.5382 79.8558 30.8908L80.6543 31.7019L80.6617 31.6958L81.8579 32.9109C82.2795 33.3392 82.9647 33.3392 83.3863 32.9109L83.9151 32.3692Z" fill="#15A1E0"/>
<path d="M85.6384 32.4629L83.8344 34.2954L83.3026 34.8356C83.2624 34.878 83.2177 34.9113 83.1715 34.9446V40.5208H85.6384V32.4629Z" fill="#15A1E0"/>
<path d="M89.2206 40.5211V28.8269L86.7538 31.3328V40.5211H89.2206Z" fill="#15A1E0"/>
<path d="M92.7995 25.2891C92.7027 25.3254 92.6103 25.3829 92.5314 25.4631L90.3326 27.6966V40.5227H92.7995V25.2891Z" fill="#15A1E0"/>
<path d="M80.5786 33.6209L80.5711 33.6285L79.7727 32.8174C79.7176 32.7614 79.655 32.7175 79.5909 32.6797V40.5212H82.0578V35.0388C81.9565 34.9873 81.8582 34.9238 81.7733 34.836L80.5786 33.6209Z" fill="#15A1E0"/>
<path d="M72.4315 38.2313V40.5208H74.8984V36.4941L73.9167 37.4898C73.4996 37.9135 72.9752 38.1587 72.4315 38.2313Z" fill="#15A1E0"/>
<path d="M76.0137 40.5212H78.479V32.8567L76.0137 35.3626V40.5212Z" fill="#15A1E0"/>
<path d="M145.406 39.0349C145.406 36.1749 145.406 33.4511 145.406 30.5836C148.263 30.5836 151.061 30.5836 153.827 30.5836C153.827 28.9659 153.827 27.4936 153.827 25.9032C150.967 25.9032 148.198 25.9032 145.415 25.9032C145.415 23.3776 145.415 20.9746 145.415 18.4884C150.009 18.4884 154.532 18.4884 159.159 18.4884C159.159 16.8208 159.159 15.3152 159.159 13.7883C152.753 13.7883 146.449 13.7883 140.002 13.7883C140.002 22.3698 140.002 30.8726 140.002 39.4359C139.173 39.4949 138.482 39.5433 137.775 39.5933C137.775 40.9915 137.775 42.3035 137.775 43.6472C144.941 43.6472 152.041 43.6472 159.188 43.6472C159.188 42.1113 159.188 40.6404 159.188 39.0334C154.566 39.0349 150.014 39.0349 145.406 39.0349Z" fill="white"/>
<path d="M129.645 28.111C130.022 27.9234 130.295 27.7857 130.567 27.651C133.308 26.3058 134.293 23.989 134.205 21.0216C134.12 18.1344 133.003 15.8524 130.287 14.8295C128.61 14.197 126.758 13.8277 124.969 13.7597C120.919 13.6053 116.86 13.7097 112.803 13.7143C112.546 13.7143 112.288 13.743 112.045 13.7687V18.0466C112.711 18.0466 113.314 18.0466 114.032 18.0466C114.032 26.6447 114.032 35.1399 114.032 43.6382C115.867 43.6382 117.555 43.6382 119.322 43.6382C119.322 41.4274 119.322 39.2937 119.322 37.1601C119.322 34.9826 119.322 32.805 119.322 30.4928C120.996 30.4928 122.507 30.4384 124.002 30.5171C128.126 30.735 128.144 35.603 128.181 35.8814C128.479 38.1119 128.744 40.3469 129.131 42.5608C129.206 42.9905 129.745 43.6321 130.11 43.6609C131.631 43.785 133.168 43.7139 134.811 43.7139C133.539 40.1926 133.241 36.6865 133.121 33.1259C133.043 30.8379 132.246 28.8359 129.645 28.111ZM128.88 22.7603C128.717 24.4944 127.472 25.7171 125.599 25.7867C123.551 25.8639 121.498 25.8049 119.386 25.8049C119.386 23.3535 119.386 20.9959 119.386 18.6701C121.691 18.6701 123.994 18.4491 126.234 18.7351C128.26 18.9924 129.087 20.5646 128.88 22.7603Z" fill="white"/>
<path d="M49.4578 41.8557C51.6401 40.8222 53.5037 39.3846 54.9233 37.2722C53.4069 36.3476 51.9857 35.482 50.5884 34.6286C45.6354 38.9776 41.0949 39.8583 36.8375 37.3357C33.0031 35.0644 31.1247 30.3719 32.0915 25.4796C32.948 21.1427 36.5232 17.8424 41.0398 17.3234C45.1557 16.8512 49.3461 19.1695 50.2816 21.5816C51.439 21.5816 52.5875 21.5816 53.8105 21.5816V17.3491C53.5752 16.8951 53.2087 16.5047 52.7484 16.1355C49.0198 13.1408 44.7743 12.1981 40.1147 12.6596C29.7304 13.6901 23.4679 24.5974 27.7104 34.2972C31.5537 43.0875 41.7712 45.495 49.4578 41.8557Z" fill="white"/>
<path d="M18.6295 26.84C17.2948 26.3391 15.9139 25.9669 14.5494 25.5477C12.3924 24.8864 10.2056 24.3114 8.08432 23.5503C6.87026 23.1145 6.2312 22.0945 6.29078 20.7054C6.34888 19.3496 7.00432 18.3796 8.20498 17.9044C9.04067 17.573 9.95979 17.3748 10.8551 17.3067C13.9774 17.0661 16.5768 18.3296 18.7815 20.3347C20.076 19.0772 21.2707 17.9181 22.5086 16.7181C19.3222 13.9156 15.6145 12.4795 11.4137 12.5219C8.62953 12.5507 6.02116 13.2649 3.77328 15.105C0.171309 18.0527 -0.567556 25.5522 5.44764 27.9295C6.62595 28.3956 7.83853 28.7739 9.04365 29.1658C11.4539 29.9482 13.9059 30.617 16.2714 31.5189C17.7432 32.0803 18.3942 33.3695 18.2661 35.0205C18.1424 36.6063 17.3127 37.6308 15.9005 38.1937C13.7554 39.0502 11.5686 39.0033 9.35201 38.4827C7.10711 37.9561 5.38061 36.5791 3.74348 34.9645C2.4743 36.11 1.2662 37.198 0 38.3405C0.341129 38.7067 0.589901 39.0123 0.877403 39.2756C4.74006 42.803 9.33562 43.8637 14.3721 43.3371C16.7034 43.0935 18.8187 42.287 20.6718 40.745C24.2649 37.7534 25.4387 29.3928 18.6295 26.84Z" fill="white"/>
</svg>
