<svg width="205" height="108" viewBox="0 0 205 108" fill="none" xmlns="http://www.w3.org/2000/svg">
<path d="M101.925 59.1866C102.112 60.5069 102.479 61.4927 103.027 62.147C104.027 63.337 105.741 63.9321 108.172 63.9321C109.625 63.9321 110.807 63.7752 111.715 63.4614C113.438 62.8604 114.297 61.7443 114.297 60.1102C114.297 59.157 113.876 58.4169 113.033 57.8959C112.189 57.3867 110.851 56.9367 109.021 56.543L105.892 55.8562C102.816 55.1782 100.706 54.4382 99.5542 53.6418C97.6062 52.3096 96.6322 50.2255 96.6322 47.3895C96.6322 44.8021 97.5855 42.6529 99.489 40.9388C101.395 39.2277 104.193 38.3722 107.885 38.3722C110.966 38.3722 113.595 39.1804 115.774 40.7938C117.95 42.4072 119.093 44.7518 119.196 47.8217H113.394C113.287 46.084 112.509 44.8495 111.064 44.1153C110.099 43.6328 108.9 43.39 107.467 43.39C105.872 43.39 104.599 43.7038 103.648 44.3314C102.698 44.959 102.221 45.8353 102.221 46.9573C102.221 47.9904 102.689 48.7601 103.628 49.2693C104.232 49.6098 105.51 50.0065 107.467 50.4653L112.538 51.6613C114.762 52.1853 116.425 52.8839 117.535 53.7602C119.258 55.119 120.12 57.0877 120.12 59.6603C120.12 62.3009 119.099 64.4916 117.059 66.2382C115.019 67.9819 112.136 68.8552 108.412 68.8552C104.608 68.8552 101.615 67.9967 99.4357 66.2767C97.2569 64.5597 96.1675 62.1973 96.1675 59.1895H101.925V59.1866Z" fill="#575756"/>
<path d="M144.875 55.5986C143.185 57.0107 140.769 57.7153 137.628 57.7153H131.612V68.1062H125.615V39.21H138.022C140.881 39.21 143.164 39.956 144.863 41.4451C146.562 42.9341 147.415 45.2403 147.415 48.3664C147.412 51.7768 146.565 54.1865 144.875 55.5986ZM140.266 45.19C139.502 44.5505 138.43 44.2278 137.051 44.2278H131.61V52.7359H137.051C138.427 52.7359 139.499 52.3896 140.266 51.6968C141.029 51.0041 141.414 49.9058 141.414 48.4049C141.411 46.901 141.029 45.8294 140.266 45.19Z" fill="#575756"/>
<path d="M158.679 39.21H165.512L175.734 68.1062H169.186L167.279 62.1677H156.64L154.68 68.1062H148.365L158.679 39.21ZM158.282 57.1883H165.683L162.033 45.8175L158.282 57.1883Z" fill="#575756"/>
<path d="M197.466 39.8376C199.494 40.5037 201.134 41.7263 202.389 43.5025C203.396 44.9413 204.082 46.4955 204.45 48.1681C204.817 49.8407 205 51.4363 205 52.952C205 56.7946 204.228 60.0481 202.685 62.7154C200.592 66.3092 197.362 68.1062 192.993 68.1062H180.536V39.21H192.993C194.784 39.2366 196.276 39.4468 197.466 39.8376ZM186.397 44.2278V63.0854H191.975C194.828 63.0854 196.818 61.6822 197.943 58.8698C198.558 57.3275 198.866 55.492 198.866 53.3606C198.866 50.4209 198.404 48.1622 197.481 46.5872C196.557 45.0123 194.722 44.2249 191.975 44.2249H186.397V44.2278Z" fill="#575756"/>
<path d="M161.213 96.9166V81.5197H164.428V94.0924H170.926V96.9166H161.213Z" fill="#39C7F3"/>
<path d="M174.506 84.2876C173.949 84.2876 173.523 84.1456 173.23 83.8643C172.937 83.5831 172.789 83.2308 172.789 82.8134C172.789 82.3871 172.937 82.0348 173.23 81.7565C173.523 81.4783 173.949 81.3391 174.506 81.3391C175.062 81.3391 175.488 81.4783 175.782 81.7565C176.075 82.0348 176.223 82.3871 176.223 82.8134C176.223 83.2338 176.075 83.5831 175.782 83.8643C175.488 84.1456 175.062 84.2876 174.506 84.2876ZM172.984 96.9166V85.753H176.015V96.9166H172.984Z" fill="#39C7F3"/>
<path d="M179.266 96.9166V85.753H182.182L182.238 87.4227C182.611 86.9431 183.102 86.5168 183.712 86.1468C184.322 85.7767 185.115 85.5932 186.092 85.5932C187.229 85.5932 188.108 85.9395 188.736 86.6293C189.361 87.3191 189.674 88.3286 189.674 89.6548V96.9196H186.667V90.0456C186.667 89.643 186.61 89.2877 186.495 88.9828C186.379 88.6779 186.199 88.4411 185.95 88.2723C185.702 88.1036 185.376 88.0207 184.973 88.0207C184.369 88.0207 183.854 88.1628 183.425 88.444C182.993 88.7253 182.62 89.0687 182.297 89.4742V96.9196H179.266V96.9166Z" fill="#39C7F3"/>
<path d="M197.969 97.1209C196.726 97.1209 195.681 96.89 194.834 96.4281C193.988 95.9663 193.348 95.3002 192.913 94.4329C192.478 93.5655 192.262 92.5175 192.262 91.2978C192.262 90.1166 192.472 89.0983 192.895 88.2427C193.319 87.3872 193.94 86.73 194.76 86.2681C195.58 85.8063 196.59 85.5754 197.786 85.5754C199.45 85.5754 200.761 86.0609 201.726 87.0349C202.691 88.0059 203.174 89.3943 203.174 91.1942C203.174 91.286 203.171 91.4103 203.162 91.5672C203.153 91.7241 203.141 91.8425 203.126 91.9284H195.29C195.305 92.4553 195.403 92.9468 195.58 93.4026C195.761 93.8585 196.042 94.2286 196.433 94.5069C196.821 94.7851 197.333 94.9243 197.966 94.9243C198.624 94.9243 199.148 94.7822 199.544 94.495C199.941 94.2079 200.142 93.7845 200.151 93.2191H203.135C203.097 94.0895 202.86 94.8118 202.422 95.392C201.984 95.9722 201.386 96.4045 200.625 96.6916C199.867 96.9788 198.982 97.1209 197.969 97.1209ZM195.326 90.0071H200.163C200.139 89.2285 199.908 88.6483 199.47 88.2634C199.032 87.8786 198.47 87.6862 197.783 87.6862C197.081 87.6862 196.507 87.8845 196.06 88.2812C195.616 88.6749 195.37 89.2522 195.326 90.0071Z" fill="#39C7F3"/>
<path d="M8.8752 47.5671C6.48617 43.4285 5.10961 38.6327 5.10961 33.5171C5.10961 17.9692 17.7593 5.31957 33.3072 5.31957C46.9575 5.31957 58.3727 15.071 60.9541 27.9724H66.1496C63.5 12.238 49.7817 0.209961 33.3072 0.209961C14.941 0.209961 0 15.151 0 33.5171C0 39.3787 1.52459 44.8939 4.19485 49.6838C5.54774 48.6831 7.13154 47.9549 8.8752 47.5671Z" fill="url(#paint0_linear_51_2985)"/>
<path d="M32.9962 56.7946C33.0998 56.7946 33.2034 56.8035 33.31 56.8035C38.6534 56.8035 43.5795 54.9887 47.5138 51.9514C43.6654 51.2587 40.7464 48.9644 39.2633 45.5866C37.4663 46.4747 35.4474 46.978 33.31 46.978C25.8883 46.978 19.8491 40.9388 19.8491 33.5171C19.8491 32.1317 20.0593 30.7936 20.4501 29.5355C19.0025 28.3276 18.0788 26.51 18.0788 24.4791C18.0788 20.8438 21.0273 17.8953 24.6627 17.8953C26.8001 17.8953 28.7007 18.9166 29.9026 20.4945C30.992 20.2103 32.1317 20.0563 33.31 20.0563C39.0205 20.0563 43.911 23.6325 45.8619 28.6651C47.2829 28.2003 48.8549 27.9605 50.5364 27.9605L55.9243 27.9664C53.4287 17.7976 44.2397 10.2309 33.3129 10.2309C20.4738 10.2309 10.0266 20.678 10.0266 33.5171C10.0266 38.6475 11.6963 43.39 14.5175 47.2415H21.1961C26.9896 47.2415 31.8446 51.3475 32.9962 56.7946Z" fill="url(#paint1_linear_51_2985)"/>
<path d="M38.1736 40.0448C38.1884 35.0329 40.317 32.2057 42.0991 30.7167C42.9399 30.015 43.8931 29.4437 44.944 29.0085C43.1352 24.3459 38.6088 21.0392 33.3098 21.0392C32.3299 21.0392 31.3796 21.1546 30.4678 21.3678C30.9651 22.2944 31.2464 23.3512 31.2464 24.4762C31.2464 28.1115 28.2978 31.06 24.6625 31.06C23.4339 31.06 22.2824 30.7226 21.2995 30.1364C20.9976 31.211 20.8318 32.3448 20.8318 33.5172C20.8318 40.4089 26.418 45.9951 33.3098 45.9951C35.3228 45.9951 37.2204 45.5156 38.9049 44.6689C38.4253 43.2746 38.1707 41.7233 38.1736 40.0448ZM31.2997 33.5172C31.2997 32.407 32.1996 31.5071 33.3098 31.5071C34.4199 31.5071 35.3198 32.407 35.3198 33.5172C35.3198 34.6273 34.4199 35.5273 33.3098 35.5273C32.1996 35.5273 31.2997 34.6273 31.2997 33.5172Z" fill="url(#paint2_linear_51_2985)"/>
<path d="M70.217 30.4236H50.9243C45.5808 30.4236 41.2498 34.7546 41.2498 40.0981C41.2498 45.4415 45.5808 49.7726 50.9243 49.7726H70.217C75.5605 49.7726 79.8915 45.4415 79.8915 40.0981C79.8945 34.7546 75.5605 30.4236 70.217 30.4236Z" fill="url(#paint3_linear_51_2985)"/>
<path d="M69.6575 40.0685C69.6575 36.066 67.2122 32.632 63.7308 31.1696C62.5704 30.6811 61.3566 30.4236 60.0156 30.4236C60.0067 30.4236 50.5335 30.4117 50.5335 30.4117C45.4209 30.4117 40.6429 33.0316 40.6221 40.0537C40.6044 46.0188 44.3907 49.7282 50.0302 49.7282H50.2434V61.1848C58.8018 70.8889 69.6545 64.9771 69.6545 56.537V40.0773V40.0744L69.6575 40.0685Z" fill="url(#paint4_linear_51_2985)"/>
<path d="M48.0463 59.4175H11.5212V78.7842H48.0463C59.9559 78.7842 69.6127 70.1133 69.6127 59.4175V40.0507C69.6127 50.7465 59.9559 59.4175 48.0463 59.4175Z" fill="url(#paint5_linear_51_2985)"/>
<path d="M40.9684 72.8813C43.0727 72.8813 44.7784 71.1755 44.7784 69.0713C44.7784 66.967 43.0727 65.2613 40.9684 65.2613C38.8642 65.2613 37.1584 66.967 37.1584 69.0713C37.1584 71.1755 38.8642 72.8813 40.9684 72.8813Z" fill="white"/>
<path d="M71.2703 84.8323H73.686H73.8636C74.5978 84.7938 77.3775 84.1928 77.5936 77.7333C77.5759 77.7925 77.5404 77.8517 77.4752 77.8517H71.2733C69.3461 77.8517 67.783 79.4148 67.783 81.342C67.78 83.2692 69.3431 84.8323 71.2703 84.8323Z" fill="url(#paint6_linear_51_2985)"/>
<path d="M73.8611 84.8323H77.4727C81.3982 84.8323 84.5924 81.638 84.5924 77.7096V72.1116C84.5924 70.1844 83.0294 68.6213 81.1021 68.6213C79.1749 68.6213 77.6119 70.1844 77.6119 72.1116V76.9518V77.7096C77.6119 77.7215 77.5911 77.7215 77.5882 77.7333C77.378 84.1928 74.5953 84.7908 73.8611 84.8323Z" fill="url(#paint7_linear_51_2985)"/>
<path d="M84.5746 26.2465V24.1713V24.0203C84.5421 23.3897 84.027 21.0007 78.4792 20.8172C78.5296 20.832 78.5829 20.8615 78.5829 20.9178V26.2465C78.5829 27.9013 79.9239 29.2424 81.5788 29.2424C83.2336 29.2453 84.5746 27.9013 84.5746 26.2465Z" fill="url(#paint8_linear_51_2985)"/>
<path d="M84.5747 24.0203V20.9178C84.5747 17.5459 81.8305 14.8017 78.4586 14.8017H73.651C71.9961 14.8017 70.655 16.1427 70.655 17.7976C70.655 19.4524 71.9961 20.7935 73.651 20.7935H77.8103H78.4616C78.4734 20.7935 78.4704 20.8112 78.4823 20.8142C84.0271 21.0007 84.5422 23.3927 84.5747 24.0203Z" fill="url(#paint9_linear_51_2985)"/>
<path d="M30.82 87.5588V65.282C30.82 65.282 30.8082 61.5667 30.8082 59.2842C30.8082 53.9881 26.5038 49.6926 21.1899 49.6926H11.8411C6.53017 49.6926 1.85276 53.4049 1.835 59.4234C1.8202 64.9386 6.31701 68.6183 11.4385 68.8315V87.5558C11.4385 98.4974 20.1153 107.367 30.8171 107.367H50.1957C39.4969 107.37 30.82 98.4974 30.82 87.5588Z" fill="url(#paint10_linear_51_2985)"/>
<mask id="mask0_51_2985" style="mask-type:luminance" maskUnits="userSpaceOnUse" x="1" y="49" width="50" height="59">
<path d="M30.8208 87.5588V65.282C30.8208 65.282 30.8089 61.5667 30.8089 59.2842C30.8089 53.9881 26.5045 49.6926 21.1907 49.6926H11.8418C6.5309 49.6926 1.85349 53.4049 1.83573 59.4234C1.82093 64.9385 6.31774 68.6183 11.4392 68.8314V87.5558C11.4392 98.4974 20.116 107.367 30.8178 107.367H50.1964C39.4976 107.37 30.8208 98.4974 30.8208 87.5588Z" fill="white"/>
</mask>
<g mask="url(#mask0_51_2985)">
<path d="M47.3986 88.1567C47.2565 87.5114 46.9783 86.7713 46.099 86.6262V86.6233C46.2678 85.0454 46.2559 83.4202 46.0635 81.6558C45.6638 77.9968 44.5685 74.989 42.7094 72.4668C40.8384 69.9268 38.4109 68.263 35.4979 67.52C32.4399 66.7414 29.3581 66.9338 26.3415 68.1002C21.8269 69.8439 18.9317 73.0529 17.7357 77.6445C17.0726 80.1874 17.1525 82.9139 17.9755 85.9779C18.1176 86.5019 18.2182 87.0318 18.3278 87.5943C18.3633 87.7749 18.3988 87.9554 18.4343 88.139C17.5729 88.3225 17.3479 88.9975 17.2561 89.5126C17.0962 90.3889 17.1377 91.3007 17.3804 92.2983C17.8038 94.0479 18.2478 95.7768 18.7422 97.6921C18.9524 98.5033 19.506 99.0332 20.3882 99.267C20.4563 99.2848 20.5421 99.344 20.551 99.3529C21.1697 101.834 22.5966 103.93 24.7873 105.582C25.9596 106.464 27.2118 107.278 28.4256 108.062C28.7542 108.275 29.0828 108.489 29.4114 108.702C30.7199 109.56 32.2474 109.936 33.7483 109.853C35.4565 109.759 37.1321 109.072 38.4228 107.828L38.8076 107.455C39.4944 106.789 40.2049 106.103 40.9243 105.454C43.5087 103.124 44.8409 100.759 45.1132 98.0355C45.128 98.003 45.202 97.9319 45.2494 97.9142C46.1523 97.5737 46.6497 96.9313 46.7681 95.9514C46.922 94.6962 47.1055 93.2368 47.3424 91.7921C47.5318 90.6376 47.668 89.3942 47.3986 88.1567ZM23.9199 80.2703C23.2035 80.9186 22.3242 81.4515 21.5575 81.8985L21.4095 81.9844C19.8405 82.8962 19.6274 83.0205 18.757 84.3408C18.0968 80.9927 18.4343 78.0382 19.7842 75.3324C21.0809 72.7332 23.0791 70.8238 25.8856 69.5064C25.9093 69.7314 25.93 69.9357 25.9478 70.1429C25.9803 70.5633 26.0188 70.9866 26.0543 71.407C26.1402 72.4017 26.232 73.4318 26.2823 74.4443C26.3948 76.786 25.6014 78.7457 23.9199 80.2703ZM18.3337 89.9804C18.3485 89.8264 18.384 89.6547 18.4491 89.4445C18.4728 89.3616 18.5083 89.3083 18.5439 89.2876C18.5557 89.2817 18.5734 89.2758 18.5942 89.2758C18.6356 89.2728 18.6889 89.2847 18.7511 89.3054C18.982 89.3823 19.2751 89.4504 19.4764 89.2787C19.6777 89.107 19.6599 88.811 19.6155 88.5416C19.583 88.3433 19.5445 88.1449 19.503 87.9436C19.4083 87.47 19.3224 87.0229 19.3076 86.57C19.2691 85.4154 19.7369 84.4533 20.6516 83.7873C21.1372 83.435 21.6819 83.13 22.2088 82.8399C22.4249 82.7186 22.641 82.6001 22.8542 82.4758C25.1751 81.1288 26.6375 79.2046 27.2089 76.7504C27.2681 76.8215 27.3273 76.8925 27.3895 76.9636C27.7358 77.3751 28.0615 77.7629 28.4256 78.1329C30.409 80.1371 32.9046 81.4515 36.0574 82.1472C37.6679 82.5024 39.3346 82.6623 41.1522 82.6357C43.1091 82.6061 44.2754 83.3876 44.9356 85.1638C45.0274 85.4095 45.0096 85.7322 44.9918 86.0431C44.9859 86.1378 44.98 86.2325 44.98 86.3243C44.977 86.4634 44.9504 86.6055 44.9238 86.7565C44.8971 86.9016 44.8734 87.0525 44.8645 87.2094C44.8556 87.3989 44.9001 87.6772 45.0688 87.8282C45.2908 88.0354 45.7142 87.8637 45.7319 87.8548C45.954 87.763 46.0161 87.7749 46.028 87.7778C46.0369 87.7808 46.0872 87.8134 46.1612 88.0176C46.5194 88.9916 46.4454 90.0159 46.3418 90.7974C46.2086 91.801 46.0635 92.8045 45.9214 93.8081C45.8267 94.4772 45.732 95.1492 45.6372 95.8182C45.5484 96.4636 45.2642 96.7685 44.6603 96.878C44.2488 96.952 44.0327 97.1829 44.0061 97.5885C43.8255 100.194 42.5939 102.435 40.1279 104.64C39.5092 105.194 38.9023 105.777 38.3162 106.342C38.0912 106.561 37.8633 106.778 37.6383 106.997C35.5335 109.007 32.3659 109.297 29.9383 107.698C29.5476 107.441 29.1538 107.186 28.7601 106.931C27.7299 106.268 26.6671 105.579 25.6724 104.844C23.4225 103.181 22.0874 101.194 21.5901 98.7697C21.5161 98.4056 21.2911 98.2161 20.9062 98.1865C20.2372 98.1362 19.9412 97.8757 19.7724 97.2007C19.3846 95.6376 18.985 94.0568 18.5794 92.4996C18.3426 91.5553 18.2596 90.756 18.3337 89.9804ZM41.1227 81.5018C38.5234 81.5255 36.2795 81.1821 34.2575 80.4539C31.4363 79.4385 29.3403 77.8665 27.8453 75.6462C27.5937 75.2732 27.4605 74.8736 27.425 74.3969C27.3036 72.7125 27.1556 71.0014 27.0135 69.3465L27.0016 69.2222C26.9868 69.0475 26.9898 69.0475 27.0816 69.0179C28.541 68.5502 29.9354 68.2808 31.2705 68.2097C33.6951 68.0765 35.9272 68.5946 38.0261 69.7639C40.4713 71.1287 42.2772 73.2483 43.5472 76.2442C44.4086 78.278 44.9001 80.5131 45.0422 83.062C44.1245 81.9962 42.8337 81.487 41.1227 81.5018Z" fill="url(#paint11_linear_51_2985)"/>
<path d="M11.667 77.0968C11.67 77.0968 11.6788 77.0968 11.6788 77.0968C11.9986 77.079 12.2058 76.7919 12.2768 76.6261C12.3479 76.4574 12.3301 76.3004 12.3183 76.2028L12.3153 76.1643L12.0785 71.8096C12.0755 71.777 12.0756 71.7563 12.0756 71.7385C12.0933 71.7356 12.1199 71.7326 12.1525 71.7326L17.1704 71.4573H17.194C17.271 71.4602 17.4486 71.4691 17.6114 71.3418C17.7003 71.2737 17.7683 71.1968 17.8216 71.1346L17.8631 71.0872C17.9519 70.9925 17.9963 70.8682 17.9904 70.7379C17.9845 70.6077 17.9282 70.4892 17.8335 70.4004L17.7831 70.3531C17.7239 70.2968 17.6618 70.2406 17.5937 70.1873C17.422 70.057 17.2384 70.0778 17.1644 70.0926L14.6422 70.2317C14.6185 70.2287 14.5978 70.2287 14.5741 70.2317L12.043 70.3708C11.1815 70.4182 10.6546 71.0073 10.7019 71.8688L10.9476 76.3567C10.9447 76.4307 10.9417 76.6231 11.1016 76.8008C11.1934 76.8955 11.3769 77.1057 11.667 77.0968Z" fill="url(#paint12_linear_51_2985)"/>
<path d="M19.5262 107.467L14.2212 107.757C14.1738 107.76 14.1442 107.76 14.1235 107.757C14.1205 107.737 14.1176 107.707 14.1146 107.663L13.857 102.988V102.944C13.8541 102.846 13.8541 102.683 13.7594 102.523C13.635 102.313 13.3716 102.109 13.0874 102.15C12.8861 102.177 12.7025 102.304 12.5516 102.523C12.4302 102.704 12.4509 102.891 12.4598 102.979L12.4627 103L12.5071 103.835C12.5782 105.137 12.6492 106.437 12.7203 107.74C12.7706 108.657 13.3716 109.193 14.2863 109.146L18.1052 108.936C18.5996 108.909 19.091 108.882 19.5854 108.853C19.6032 108.856 19.6179 108.856 19.6298 108.853C19.6446 108.853 19.6564 108.85 19.6623 108.85C19.686 108.85 19.7127 108.85 19.7452 108.847C20.1715 108.823 20.438 108.58 20.4706 108.178C20.4883 107.985 20.4261 107.805 20.2988 107.674C20.0857 107.464 19.7748 107.452 19.5262 107.467Z" fill="url(#paint13_linear_51_2985)"/>
<path d="M37.4307 101.218C37.0754 101.023 36.7202 100.801 36.4153 100.611C36.2821 100.528 36.1488 100.436 36.0186 100.348C35.7995 100.2 35.5716 100.046 35.3318 99.9124C34.4822 99.4476 33.6562 99.4358 32.8747 99.8828C32.848 99.8947 32.7622 99.8976 32.7148 99.8769C31.9747 99.566 31.2465 99.6223 30.5508 100.043C30.2814 100.205 30.0357 100.401 29.7959 100.59C29.7189 100.652 29.642 100.712 29.565 100.771C29.3785 100.916 29.192 101.061 29.0055 101.209C28.7805 101.387 28.5555 101.564 28.3275 101.736C28.1026 101.908 28.0522 102.091 28.0522 102.216C28.0522 102.334 28.0937 102.512 28.2979 102.677L28.5762 102.899C29.0144 103.252 29.4703 103.619 29.938 103.953C30.8587 104.611 31.9126 104.912 33.0671 104.853C34.1802 104.791 35.1246 104.436 35.8735 103.802C36.3561 103.394 36.812 102.944 37.2531 102.509C37.3685 102.393 37.484 102.281 37.6024 102.165C37.7948 101.979 37.8155 101.798 37.8007 101.68C37.783 101.552 37.706 101.369 37.4307 101.218ZM30.2222 101.706C30.6278 101.336 31.0215 100.996 31.5336 100.851C31.8297 100.768 32.1139 100.818 32.4099 101.011C32.7326 101.218 33.0375 101.2 33.3395 100.954C33.7184 100.644 34.1269 100.596 34.5503 100.812C34.8907 100.987 35.2282 101.197 35.5538 101.399C35.5657 101.407 35.5775 101.413 35.5893 101.422C34.2572 101.641 31.5188 101.783 30.2222 101.706ZM35.5509 102.603C34.8966 103.264 34.0115 103.666 33.0553 103.728C33.0434 103.728 33.0345 103.728 33.0227 103.731C32.0665 103.785 31.131 103.48 30.3821 102.888L35.5509 102.603Z" fill="url(#paint14_linear_51_2985)"/>
<path d="M27.8503 90.5872C28.099 90.7826 28.3328 90.9632 28.5638 91.1438C28.697 91.2503 29.1055 91.5701 29.4578 91.1556C29.5229 91.0816 29.5614 91.0046 29.5851 90.9247C29.5969 91.1349 29.6088 91.348 29.6206 91.573L29.6324 91.7743L29.4075 91.7862C29.0019 91.8099 28.62 91.8276 28.2411 91.8513C28.0635 91.8602 27.8414 91.8928 27.6993 92.0556C27.6371 92.1266 27.5632 92.2539 27.575 92.4552C27.5868 92.6684 27.6993 93.0177 28.2914 92.9851C28.2943 92.9851 28.2973 92.9851 28.3032 92.9851C28.549 92.9703 28.7976 92.9555 29.0433 92.9437C29.3335 92.9289 29.6235 92.9141 29.9137 92.8933C30.5057 92.8549 30.7959 92.5351 30.7722 91.9401C30.7633 91.6796 30.7455 91.422 30.7307 91.1645C30.7189 90.9602 30.7071 90.756 30.6982 90.5517C30.6863 90.306 30.6212 90.1313 30.4969 90.0159C30.4258 89.9507 30.2956 89.8738 30.0943 89.8827H30.0913C29.893 89.8945 29.7745 89.9803 29.7124 90.0514C29.5703 90.2083 29.5614 90.4214 29.5703 90.5961C29.4992 90.4303 29.3512 90.3149 29.2624 90.2438C29.1677 90.1698 29.0729 90.0958 28.9782 90.0188C28.6999 89.7998 28.4157 89.5718 28.1138 89.3705C26.9533 88.589 25.6744 88.4854 24.4163 89.0745C24.0196 89.261 23.6643 89.5274 23.3239 89.785C23.1996 89.8767 23.0782 89.9715 22.9539 90.0603L22.8976 90.1017C22.7348 90.2142 22.5127 90.3681 22.4772 90.6198C22.4565 90.7678 22.5068 90.9158 22.6223 91.0609C22.9775 91.4901 23.3801 91.1675 23.5518 91.0313C23.5785 91.0106 23.6051 90.9898 23.6318 90.9691L24.5081 90.3208C24.6117 91.1734 24.955 92.0793 26.1777 92.0911C26.2162 92.0911 26.2546 92.0911 26.2902 92.0881C27.0688 92.0467 27.6312 91.4783 27.8237 90.5606L27.8503 90.5872ZM26.7106 90.3682C26.7165 90.5251 26.6602 90.676 26.5507 90.7885C26.45 90.8951 26.3168 90.9573 26.1718 90.9602C26.0326 90.9632 25.8876 90.901 25.7721 90.7885C25.6596 90.679 25.5945 90.5339 25.5915 90.3948C25.5915 90.1224 25.7987 89.8708 26.0297 89.859C26.0326 89.859 26.0386 89.859 26.0415 89.859C26.6277 89.8471 26.7046 90.1432 26.7106 90.3682Z" fill="url(#paint15_linear_51_2985)"/>
<path d="M36.0217 90.7678C36.1549 90.7234 36.2408 90.6257 36.3088 90.5458C36.3325 90.5191 36.3532 90.4925 36.3799 90.4718C36.593 90.2823 36.8062 90.0958 37.0282 89.9004L37.0489 89.8827C37.3539 90.8655 37.9341 91.3392 38.7748 91.2948C38.8103 91.2918 38.8429 91.2888 38.8784 91.2859C40.027 91.1675 40.3024 90.2645 40.3586 89.4504C40.5303 89.554 40.702 89.6577 40.8737 89.7642C41.0691 89.8826 41.2645 90.0011 41.4599 90.1195C41.9868 90.4362 42.2503 90.0869 42.3213 89.9715C42.4072 89.8294 42.5493 89.4652 42.049 89.1485C41.9424 89.0804 41.8358 89.0123 41.7293 88.9413C41.5516 88.8228 41.3711 88.7074 41.1905 88.5979C39.2189 87.4226 37.0785 87.917 35.32 89.9507C35.1513 90.1432 35.2224 90.5251 35.3526 90.6849C35.551 90.9247 36.0187 90.7678 36.0217 90.7678ZM39.1034 89.2018C39.1893 89.2758 39.2426 89.4001 39.2544 89.5481C39.2662 89.705 39.2159 89.856 39.1123 89.9715C39.0146 90.084 38.8814 90.1491 38.7363 90.158C38.5883 90.1668 38.4462 90.1136 38.3308 90.0099C38.2153 89.9063 38.1472 89.7672 38.1383 89.6133C38.1265 89.3972 38.1147 89.1751 38.8548 89.1218C38.9495 89.1159 39.0353 89.1426 39.1034 89.2018Z" fill="url(#paint16_linear_51_2985)"/>
<path d="M36.1249 87.9406L36.1663 87.9199C36.2936 87.8548 36.4209 87.7897 36.5482 87.7216C36.9775 87.4996 37.4186 87.2686 37.8656 87.0821C39.1208 86.5522 40.2309 86.6203 41.2582 87.2953C41.4536 87.4226 41.6608 87.538 41.8591 87.6446C41.9776 87.7097 42.096 87.7749 42.2114 87.8429C42.3565 87.9288 42.5015 87.9673 42.6348 87.9614C42.6851 87.9584 42.7295 87.9495 42.7739 87.9347C42.8686 87.8992 42.9989 87.8193 43.067 87.6268C43.1498 87.3989 43.0018 87.0111 42.7828 86.8838L42.7413 86.8601C42.1285 86.5049 41.495 86.1407 40.8289 85.8654C40.4855 85.7233 40.1184 85.6611 39.7632 85.6019C39.6122 85.5753 39.4583 85.5516 39.3103 85.5191C39.2807 85.5131 39.2481 85.5131 39.2185 85.5161C38.0284 85.7174 36.8739 86.1703 35.589 86.94C35.447 87.0259 35.2486 87.165 35.1983 87.39C35.1657 87.5321 35.1983 87.6801 35.293 87.8252C35.5594 88.2337 35.9562 88.0265 36.1249 87.9406Z" fill="url(#paint17_linear_51_2985)"/>
<path d="M21.942 87.7482C21.794 87.8637 21.788 88.0531 21.7821 88.2071C21.7821 88.2515 21.7792 88.2929 21.7732 88.3314C21.7643 88.3965 21.7792 88.4617 21.8206 88.515C21.8621 88.5682 21.9213 88.6008 21.9864 88.6097C22.0278 88.6156 22.0693 88.6245 22.1137 88.6363C22.2025 88.657 22.3061 88.6837 22.4097 88.6778C22.4748 88.6748 22.537 88.66 22.5992 88.6245C22.8834 88.4617 23.1498 88.2722 23.4074 88.0887C23.5169 88.0117 23.6235 87.9347 23.733 87.8607C24.4553 87.3663 25.2014 87.1798 26.0125 87.2894C27.0013 87.4255 27.9249 87.7838 28.7005 88.1153C28.8722 88.1893 29.0558 88.1242 29.2008 88.0709C29.2452 88.0531 29.2926 88.0383 29.334 88.0265C29.4051 88.0087 29.4643 87.9643 29.4969 87.8992C29.5294 87.8341 29.5324 87.7601 29.5028 87.6949C29.485 87.6535 29.4732 87.6061 29.4584 87.5588C29.414 87.4019 29.3577 87.2094 29.1831 87.1236C27.768 86.4249 26.5158 86.1082 25.2428 86.1259C25.231 86.1259 25.2221 86.1259 25.2132 86.1289C25.1777 86.1348 25.1392 86.1378 25.0978 86.1437C24.9912 86.1555 24.855 86.1703 24.7218 86.1999C23.6353 86.4457 22.7857 87.0999 21.9627 87.7334L21.942 87.7482Z" fill="url(#paint18_linear_51_2985)"/>
<path d="M30.5952 95.6761C30.459 95.7057 30.3465 95.7886 30.2577 95.9248C30.1452 96.0994 30.0268 96.4428 30.5182 96.7862C31.1073 97.2007 31.7971 97.3842 32.7533 97.3842C32.7563 97.3842 32.7622 97.3842 32.7651 97.3842C32.7681 97.3842 32.771 97.3842 32.774 97.3842C33.7361 97.2984 34.4377 96.9964 34.9884 96.4369C35.1097 96.3126 35.2489 96.1438 35.2459 95.9277C35.243 95.7856 35.1837 95.6554 35.0624 95.5429C34.8907 95.3771 34.6005 95.2528 34.2068 95.611C33.3631 96.3747 32.105 96.4695 31.1458 95.8389C30.9919 95.7324 30.8024 95.6317 30.5952 95.6761Z" fill="url(#paint19_linear_51_2985)"/>
<path d="M34.4408 97.849C34.3757 97.9201 34.2987 98.0503 34.3076 98.2487C34.3165 98.4529 34.4053 98.5714 34.4793 98.6394C34.6066 98.7549 34.7872 98.7993 35.0358 98.7875C35.2016 98.7756 35.3704 98.7697 35.5362 98.7608C35.8233 98.746 36.1075 98.7312 36.3917 98.7075C36.4154 98.7046 36.4331 98.7046 36.445 98.7046C36.4479 98.7164 36.4479 98.7342 36.4479 98.7578C36.4539 99.045 36.4716 99.3322 36.4894 99.6193L36.5071 99.9302C36.5427 100.54 36.9749 100.567 37.1051 100.561C37.1081 100.561 37.1081 100.561 37.1111 100.561C37.3124 100.549 37.4308 100.46 37.4959 100.389C37.6055 100.268 37.6528 100.096 37.641 99.8739C37.6291 99.6637 37.6173 99.4565 37.6054 99.2463C37.5906 98.9532 37.5758 98.6631 37.5551 98.37C37.5196 97.8549 37.191 97.553 36.6759 97.5589C36.4716 97.5619 36.2673 97.5737 36.069 97.5885C35.9802 97.5944 35.8914 97.6004 35.8026 97.6033L35.5273 97.6181C35.3467 97.627 35.1631 97.6388 34.9825 97.6448C34.7339 97.6625 34.5562 97.7247 34.4408 97.849Z" fill="url(#paint20_linear_51_2985)"/>
<path d="M29.2012 99.0983C29.737 99.0983 30.1781 99.0717 30.5836 99.0125C30.7672 98.9858 30.8915 98.8437 30.9922 98.7283C31.0247 98.6927 31.0543 98.6543 31.0869 98.6246C31.1402 98.5773 31.1698 98.5062 31.1668 98.4352C31.1639 98.3641 31.1283 98.296 31.0721 98.2516C31.0366 98.225 31.004 98.1895 30.9685 98.1569C30.856 98.0474 30.7169 97.9082 30.5274 97.9082C29.9057 97.9082 29.284 97.9497 28.7068 97.9971C28.2213 98.0355 27.9341 98.3671 27.94 98.8763C27.943 99.0539 27.9519 99.2315 27.9637 99.4091C27.9667 99.4713 27.9726 99.5335 27.9756 99.5956C27.9726 99.6104 27.9726 99.6223 27.9756 99.6371L28.017 100.386C28.0496 100.993 28.4847 101.023 28.6179 101.02C28.6209 101.02 28.6239 101.02 28.6298 101.02C28.8281 101.008 28.9466 100.922 29.0117 100.848C29.1212 100.727 29.1686 100.552 29.1538 100.333C29.1449 100.197 29.139 100.06 29.1331 99.9242C29.1242 99.6993 29.1153 99.4654 29.0887 99.2345C29.0798 99.1516 29.0857 99.1131 29.0798 99.1072C29.0975 99.1072 29.1301 99.1013 29.2012 99.0983Z" fill="url(#paint21_linear_51_2985)"/>
<path d="M37.2801 103.264C37.1084 103.261 36.9751 103.323 36.8745 103.429C36.7205 103.595 36.7146 103.829 36.7235 104.013L36.7768 104.96L36.7887 105.17L36.5163 105.185C36.1048 105.206 35.714 105.226 35.3233 105.253C35.0923 105.268 34.9088 105.357 34.8081 105.502C34.7223 105.62 34.7016 105.771 34.743 105.928C34.8111 106.174 35.1486 106.372 35.3854 106.372C35.6815 106.372 35.9775 106.363 36.2706 106.345C36.5281 106.33 36.7827 106.313 37.0314 106.295L37.1261 106.289C37.6709 106.251 37.961 105.925 37.9373 105.374C37.9254 105.102 37.9106 104.827 37.8958 104.554C37.884 104.353 37.8722 104.152 37.8633 103.947C37.8366 103.373 37.5317 103.258 37.2801 103.264Z" fill="url(#paint22_linear_51_2985)"/>
<path d="M31.1367 105.534C31.0065 105.463 30.8674 105.481 30.7549 105.496C30.7282 105.499 30.7016 105.505 30.6749 105.505C30.3463 105.522 30.0207 105.54 29.6743 105.558L29.4464 105.57L29.4345 105.348C29.4168 105.004 29.399 104.685 29.3812 104.365C29.3487 103.761 28.9283 103.719 28.7981 103.719C28.5938 103.719 28.4694 103.808 28.4013 103.882C28.2889 104.004 28.2326 104.181 28.2445 104.4L28.2474 104.492C28.2711 104.969 28.2948 105.46 28.3303 105.946C28.3658 106.416 28.6648 106.718 29.0911 106.712C29.3901 106.709 29.698 106.701 30.0177 106.683C30.3493 106.665 30.6956 106.638 31.0598 106.603C31.2995 106.579 31.569 106.277 31.5601 106.043C31.5512 105.786 31.2611 105.602 31.1367 105.534Z" fill="url(#paint23_linear_51_2985)"/>
<path d="M21.1548 87.5588C21.2259 87.6209 21.3532 87.6949 21.5456 87.6831C21.5515 87.6831 21.5574 87.6831 21.5634 87.6831C21.6936 87.6713 22.1199 87.5913 22.0844 86.9845C22.0755 86.8572 22.0726 86.7269 22.0666 86.5967C22.0548 86.3509 22.0459 86.0993 22.0193 85.8477C22.0163 85.8181 22.0163 85.8003 22.0163 85.7855C22.0311 85.7826 22.0548 85.7796 22.0903 85.7796C22.3419 85.7737 22.5965 85.7589 22.8481 85.7441C23.0228 85.7322 23.1945 85.7233 23.3692 85.7174C23.5527 85.7056 23.7896 85.6789 23.9376 85.5102C24.0323 85.4036 24.0767 85.2615 24.0619 85.0957C24.0323 84.7198 23.7718 84.5422 23.2892 84.5806C23.1175 84.5925 22.9458 84.6014 22.7712 84.6102L22.5699 84.6191C22.561 84.6191 22.5521 84.6191 22.5433 84.6191L22.2798 84.631C22.0785 84.6398 21.8742 84.6487 21.6729 84.6665C21.1459 84.7138 20.8529 85.0365 20.8706 85.5546C20.8825 85.9039 20.9032 86.2562 20.9239 86.6055L20.9506 87.0585C20.9595 87.2835 21.0275 87.4492 21.1548 87.5588Z" fill="url(#paint24_linear_51_2985)"/>
<path d="M27.8837 85.4717C28.0287 85.4628 28.1738 85.4569 28.3189 85.451C28.5971 85.4391 28.8843 85.4273 29.1715 85.3947C29.1892 85.3918 29.204 85.3918 29.2188 85.3918C29.2573 85.3888 29.278 85.3918 29.2839 85.3888C29.2898 85.4036 29.2987 85.4391 29.2958 85.522C29.2928 85.7648 29.3106 86.0075 29.3283 86.2444C29.3372 86.3569 29.3432 86.4723 29.3491 86.5848C29.3787 87.1858 29.7635 87.2361 29.9293 87.2302C29.9352 87.2302 29.9412 87.2302 29.9441 87.2302C30.1425 87.2183 30.2608 87.1325 30.326 87.0614C30.4414 86.9341 30.4918 86.7565 30.4799 86.5138L30.4622 86.1348C30.4444 85.7766 30.4266 85.4095 30.397 85.0454C30.3526 84.5214 30.0359 84.2402 29.5059 84.2491C29.3135 84.252 29.1211 84.2639 28.9317 84.2757C28.8488 84.2816 28.7659 84.2875 28.683 84.2905C28.68 84.2905 28.6771 84.2935 28.6711 84.2905L28.3988 84.3053C28.2034 84.3172 28.008 84.326 27.8097 84.3379C27.8067 84.3379 27.8038 84.3379 27.8008 84.3379C27.1939 84.3704 27.1643 84.7967 27.1702 84.927C27.1791 85.1372 27.2709 85.2585 27.3449 85.3266C27.4663 85.4391 27.6409 85.4776 27.8837 85.4717Z" fill="url(#paint25_linear_51_2985)"/>
<path d="M21.2491 92.5381C21.2876 93.0355 21.6102 93.3256 22.1165 93.3167C22.2319 93.3137 22.3444 93.3108 22.4599 93.3049C22.5457 93.2989 22.6345 93.293 22.7204 93.2901C22.8092 93.2841 22.898 93.2812 22.9898 93.2753L23.2858 93.2575C23.4723 93.2457 23.6618 93.2368 23.8512 93.2279C24.0822 93.216 24.242 93.1509 24.3516 93.0266C24.4167 92.9526 24.4936 92.8223 24.4818 92.621C24.47 92.4197 24.3782 92.2983 24.3012 92.2332C24.1769 92.1237 24.0022 92.0763 23.7861 92.0881C23.5848 92.1 23.3835 92.1118 23.1822 92.1207C22.9217 92.1355 22.6582 92.1474 22.3977 92.1681C22.3859 92.171 22.374 92.171 22.3651 92.1681C22.3651 92.1592 22.3622 92.1473 22.3622 92.1325L22.3592 91.9964C22.3504 91.6382 22.3415 91.2652 22.2793 90.901C22.2497 90.7175 22.1046 90.5961 21.9892 90.4955C21.9537 90.4629 21.9152 90.4333 21.8855 90.4007C21.8352 90.3474 21.7672 90.3208 21.6932 90.3238C21.6221 90.3267 21.554 90.3652 21.5125 90.4215C21.4859 90.457 21.4533 90.4925 21.4208 90.528C21.3172 90.6405 21.1839 90.7826 21.181 90.9691C21.1721 91.4813 21.2106 91.9993 21.2491 92.4996V92.5381Z" fill="url(#paint26_linear_51_2985)"/>
</g>
<defs>
<linearGradient id="paint0_linear_51_2985" x1="0.00254592" y1="24.9469" x2="66.618" y2="24.9469" gradientUnits="userSpaceOnUse">
<stop stop-color="#2B2B65"/>
<stop offset="1" stop-color="#1D70B6"/>
</linearGradient>
<linearGradient id="paint1_linear_51_2985" x1="10.0242" y1="33.5179" x2="56.596" y2="33.5179" gradientUnits="userSpaceOnUse">
<stop stop-color="#2B2B65"/>
<stop offset="1" stop-color="#1D70B6"/>
</linearGradient>
<linearGradient id="paint2_linear_51_2985" x1="20.8318" y1="33.5179" x2="45.788" y2="33.5179" gradientUnits="userSpaceOnUse">
<stop stop-color="#2B2B65"/>
<stop offset="1" stop-color="#1D70B6"/>
</linearGradient>
<linearGradient id="paint3_linear_51_2985" x1="41.2506" y1="40.0975" x2="79.8932" y2="40.0975" gradientUnits="userSpaceOnUse">
<stop stop-color="#2B2B65"/>
<stop offset="1" stop-color="#35A7DF"/>
</linearGradient>
<linearGradient id="paint4_linear_51_2985" x1="40.6237" y1="48.3064" x2="69.6572" y2="48.3064" gradientUnits="userSpaceOnUse">
<stop stop-color="#2B2B65"/>
<stop offset="1" stop-color="#1D70B6"/>
</linearGradient>
<linearGradient id="paint5_linear_51_2985" x1="11.5207" y1="59.4173" x2="69.6119" y2="59.4173" gradientUnits="userSpaceOnUse">
<stop stop-color="#2B2B65"/>
<stop offset="1" stop-color="#35A7DF"/>
</linearGradient>
<linearGradient id="paint6_linear_51_2985" x1="77.3901" y1="82.0829" x2="67.8763" y2="79.6861" gradientUnits="userSpaceOnUse">
<stop stop-color="#2B2B65"/>
<stop offset="1" stop-color="#1D70B6"/>
</linearGradient>
<linearGradient id="paint7_linear_51_2985" x1="81.8439" y1="73.7554" x2="77.2551" y2="83.4572" gradientUnits="userSpaceOnUse">
<stop stop-color="#2B2B65"/>
<stop offset="1" stop-color="#1D70B6"/>
</linearGradient>
<linearGradient id="paint8_linear_51_2985" x1="82.2151" y1="20.9905" x2="80.1562" y2="29.1626" gradientUnits="userSpaceOnUse">
<stop stop-color="#2B2B65"/>
<stop offset="1" stop-color="#1D70B6"/>
</linearGradient>
<linearGradient id="paint9_linear_51_2985" x1="75.0619" y1="17.1651" x2="83.3956" y2="21.1068" gradientUnits="userSpaceOnUse">
<stop stop-color="#2B2B65"/>
<stop offset="1" stop-color="#1D70B6"/>
</linearGradient>
<linearGradient id="paint10_linear_51_2985" x1="26.0184" y1="98.1491" x2="26.0184" y2="52.8612" gradientUnits="userSpaceOnUse">
<stop stop-color="#006633"/>
<stop offset="1" stop-color="#92BF1F"/>
</linearGradient>
<linearGradient id="paint11_linear_51_2985" x1="43.8841" y1="99.6259" x2="14.6286" y2="69.1167" gradientUnits="userSpaceOnUse">
<stop stop-color="#92BF1F"/>
<stop offset="0.2037" stop-color="#B7CF20"/>
<stop offset="0.4109" stop-color="#D4DC20"/>
<stop offset="0.6155" stop-color="#EAE521"/>
<stop offset="0.8142" stop-color="#F7EB21"/>
<stop offset="1" stop-color="#FBED21"/>
</linearGradient>
<linearGradient id="paint12_linear_51_2985" x1="41.5634" y1="101.851" x2="12.308" y2="71.342" gradientUnits="userSpaceOnUse">
<stop stop-color="#92BF1F"/>
<stop offset="0.2037" stop-color="#B7CF20"/>
<stop offset="0.4109" stop-color="#D4DC20"/>
<stop offset="0.6155" stop-color="#EAE521"/>
<stop offset="0.8142" stop-color="#F7EB21"/>
<stop offset="1" stop-color="#FBED21"/>
</linearGradient>
<linearGradient id="paint13_linear_51_2985" x1="25.4344" y1="117.317" x2="-3.82104" y2="86.8076" gradientUnits="userSpaceOnUse">
<stop stop-color="#92BF1F"/>
<stop offset="0.2037" stop-color="#B7CF20"/>
<stop offset="0.4109" stop-color="#D4DC20"/>
<stop offset="0.6155" stop-color="#EAE521"/>
<stop offset="0.8142" stop-color="#F7EB21"/>
<stop offset="1" stop-color="#FBED21"/>
</linearGradient>
<linearGradient id="paint14_linear_51_2985" x1="36.9958" y1="106.231" x2="7.74037" y2="75.7216" gradientUnits="userSpaceOnUse">
<stop stop-color="#92BF1F"/>
<stop offset="0.2037" stop-color="#B7CF20"/>
<stop offset="0.4109" stop-color="#D4DC20"/>
<stop offset="0.6155" stop-color="#EAE521"/>
<stop offset="0.8142" stop-color="#F7EB21"/>
<stop offset="1" stop-color="#FBED21"/>
</linearGradient>
<linearGradient id="paint15_linear_51_2985" x1="39.3953" y1="103.929" x2="10.1398" y2="73.42" gradientUnits="userSpaceOnUse">
<stop stop-color="#92BF1F"/>
<stop offset="0.2037" stop-color="#B7CF20"/>
<stop offset="0.4109" stop-color="#D4DC20"/>
<stop offset="0.6155" stop-color="#EAE521"/>
<stop offset="0.8142" stop-color="#F7EB21"/>
<stop offset="1" stop-color="#FBED21"/>
</linearGradient>
<linearGradient id="paint16_linear_51_2985" x1="46.0482" y1="97.5506" x2="16.7927" y2="67.0412" gradientUnits="userSpaceOnUse">
<stop stop-color="#92BF1F"/>
<stop offset="0.2037" stop-color="#B7CF20"/>
<stop offset="0.4109" stop-color="#D4DC20"/>
<stop offset="0.6155" stop-color="#EAE521"/>
<stop offset="0.8142" stop-color="#F7EB21"/>
<stop offset="1" stop-color="#FBED21"/>
</linearGradient>
<linearGradient id="paint17_linear_51_2985" x1="47.4916" y1="96.1661" x2="18.2362" y2="65.6568" gradientUnits="userSpaceOnUse">
<stop stop-color="#92BF1F"/>
<stop offset="0.2037" stop-color="#B7CF20"/>
<stop offset="0.4109" stop-color="#D4DC20"/>
<stop offset="0.6155" stop-color="#EAE521"/>
<stop offset="0.8142" stop-color="#F7EB21"/>
<stop offset="1" stop-color="#FBED21"/>
</linearGradient>
<linearGradient id="paint18_linear_51_2985" x1="40.2161" y1="103.143" x2="10.9607" y2="72.6335" gradientUnits="userSpaceOnUse">
<stop stop-color="#92BF1F"/>
<stop offset="0.2037" stop-color="#B7CF20"/>
<stop offset="0.4109" stop-color="#D4DC20"/>
<stop offset="0.6155" stop-color="#EAE521"/>
<stop offset="0.8142" stop-color="#F7EB21"/>
<stop offset="1" stop-color="#FBED21"/>
</linearGradient>
<linearGradient id="paint19_linear_51_2985" x1="39.8259" y1="103.517" x2="10.5702" y2="73.0078" gradientUnits="userSpaceOnUse">
<stop stop-color="#92BF1F"/>
<stop offset="0.2037" stop-color="#B7CF20"/>
<stop offset="0.4109" stop-color="#D4DC20"/>
<stop offset="0.6155" stop-color="#EAE521"/>
<stop offset="0.8142" stop-color="#F7EB21"/>
<stop offset="1" stop-color="#FBED21"/>
</linearGradient>
<linearGradient id="paint20_linear_51_2985" x1="40.4259" y1="102.942" x2="11.1704" y2="72.4324" gradientUnits="userSpaceOnUse">
<stop stop-color="#92BF1F"/>
<stop offset="0.2037" stop-color="#B7CF20"/>
<stop offset="0.4109" stop-color="#D4DC20"/>
<stop offset="0.6155" stop-color="#EAE521"/>
<stop offset="0.8142" stop-color="#F7EB21"/>
<stop offset="1" stop-color="#FBED21"/>
</linearGradient>
<linearGradient id="paint21_linear_51_2985" x1="36.4946" y1="106.712" x2="7.2391" y2="76.2024" gradientUnits="userSpaceOnUse">
<stop stop-color="#92BF1F"/>
<stop offset="0.2037" stop-color="#B7CF20"/>
<stop offset="0.4109" stop-color="#D4DC20"/>
<stop offset="0.6155" stop-color="#EAE521"/>
<stop offset="0.8142" stop-color="#F7EB21"/>
<stop offset="1" stop-color="#FBED21"/>
</linearGradient>
<linearGradient id="paint22_linear_51_2985" x1="37.3491" y1="105.892" x2="8.0936" y2="75.383" gradientUnits="userSpaceOnUse">
<stop stop-color="#92BF1F"/>
<stop offset="0.2037" stop-color="#B7CF20"/>
<stop offset="0.4109" stop-color="#D4DC20"/>
<stop offset="0.6155" stop-color="#EAE521"/>
<stop offset="0.8142" stop-color="#F7EB21"/>
<stop offset="1" stop-color="#FBED21"/>
</linearGradient>
<linearGradient id="paint23_linear_51_2985" x1="33.3985" y1="109.68" x2="4.14308" y2="79.1709" gradientUnits="userSpaceOnUse">
<stop stop-color="#92BF1F"/>
<stop offset="0.2037" stop-color="#B7CF20"/>
<stop offset="0.4109" stop-color="#D4DC20"/>
<stop offset="0.6155" stop-color="#EAE521"/>
<stop offset="0.8142" stop-color="#F7EB21"/>
<stop offset="1" stop-color="#FBED21"/>
</linearGradient>
<linearGradient id="paint24_linear_51_2985" x1="39.494" y1="103.836" x2="10.2386" y2="73.3262" gradientUnits="userSpaceOnUse">
<stop stop-color="#92BF1F"/>
<stop offset="0.2037" stop-color="#B7CF20"/>
<stop offset="0.4109" stop-color="#D4DC20"/>
<stop offset="0.6155" stop-color="#EAE521"/>
<stop offset="0.8142" stop-color="#F7EB21"/>
<stop offset="1" stop-color="#FBED21"/>
</linearGradient>
<linearGradient id="paint25_linear_51_2985" x1="43.3559" y1="100.132" x2="14.1005" y2="69.6231" gradientUnits="userSpaceOnUse">
<stop stop-color="#92BF1F"/>
<stop offset="0.2037" stop-color="#B7CF20"/>
<stop offset="0.4109" stop-color="#D4DC20"/>
<stop offset="0.6155" stop-color="#EAE521"/>
<stop offset="0.8142" stop-color="#F7EB21"/>
<stop offset="1" stop-color="#FBED21"/>
</linearGradient>
<linearGradient id="paint26_linear_51_2985" x1="36.4258" y1="106.777" x2="7.1704" y2="76.2678" gradientUnits="userSpaceOnUse">
<stop stop-color="#92BF1F"/>
<stop offset="0.2037" stop-color="#B7CF20"/>
<stop offset="0.4109" stop-color="#D4DC20"/>
<stop offset="0.6155" stop-color="#EAE521"/>
<stop offset="0.8142" stop-color="#F7EB21"/>
<stop offset="1" stop-color="#FBED21"/>
</linearGradient>
</defs>
</svg>
