<svg width="128" height="45" viewBox="0 0 128 45" fill="none" xmlns="http://www.w3.org/2000/svg">
<path d="M116.811 30.9044C116.811 28.6144 116.811 26.4618 116.811 24.1717C119.124 24.1717 121.391 24.1717 123.635 24.1717C123.635 22.8893 123.635 21.6985 123.635 20.439C121.322 20.439 119.078 20.439 116.811 20.439C116.811 18.4237 116.811 16.5001 116.811 14.5307C120.521 14.5307 124.185 14.5307 127.941 14.5307C127.941 13.2024 127.941 12.0116 127.941 10.775C122.742 10.775 117.635 10.775 112.414 10.775C112.414 17.6222 112.414 24.4007 112.414 31.225C111.75 31.2708 111.177 31.3166 110.605 31.3395C110.605 32.4617 110.605 33.4922 110.605 34.5685C116.422 34.5685 122.17 34.5685 127.941 34.5685C127.941 33.3548 127.941 32.164 127.941 30.8815C124.231 30.9044 120.544 30.9044 116.811 30.9044Z" fill="black"/>
<path d="M104.056 22.1794C104.353 22.0191 104.582 21.9275 104.811 21.813C107.033 20.7366 107.834 18.9046 107.765 16.523C107.697 14.21 106.781 12.4009 104.582 11.5765C103.231 11.0727 101.72 10.775 100.277 10.7292C97.0022 10.6147 93.7046 10.6834 90.4298 10.6834C90.2237 10.6834 90.0176 10.7063 89.8115 10.7292V14.1413C90.3611 14.1413 90.842 14.1413 91.4146 14.1413C91.4146 20.9885 91.4146 27.7671 91.4146 34.5456C92.9031 34.5456 94.2771 34.5456 95.6969 34.5456C95.6969 32.7822 95.6969 31.0876 95.6969 29.3701C95.6969 27.6297 95.6969 25.8892 95.6969 24.0572C97.048 24.0572 98.2847 24.0114 99.4984 24.0801C102.842 24.2633 102.842 28.1335 102.888 28.3625C103.14 30.1487 103.346 31.912 103.666 33.6983C103.735 34.0418 104.17 34.5456 104.468 34.5685C105.704 34.6601 106.941 34.6143 108.269 34.6143C107.239 31.7975 106.987 29.0037 106.895 26.164C106.804 24.3549 106.162 22.7748 104.056 22.1794ZM103.437 17.9199C103.3 19.2939 102.292 20.2786 100.781 20.3244C99.132 20.3931 97.4602 20.3473 95.7427 20.3473C95.7427 18.4008 95.7427 16.523 95.7427 14.668C97.6206 14.668 99.4755 14.4848 101.285 14.7138C102.933 14.9199 103.598 16.1795 103.437 17.9199Z" fill="black"/>
<path d="M40.5527 33.1487C42.316 32.3242 43.8275 31.1792 44.9725 29.4846C43.7359 28.7518 42.5909 28.0648 41.4687 27.3778C37.4612 30.8357 33.7742 31.5456 30.3391 29.5304C27.2247 27.7213 25.7133 23.9885 26.4919 20.0725C27.1789 16.6146 30.0872 13.981 33.7284 13.5688C37.0719 13.2024 40.4611 15.0345 41.2168 16.9581C42.1557 16.9581 43.0947 16.9581 44.0794 16.9581V13.6146C43.8962 13.2482 43.5985 12.9505 43.2092 12.6528C40.1863 10.2712 36.7513 9.51547 32.9727 9.88187C24.5683 10.6834 19.4844 19.3855 22.9194 27.1259C26.0339 34.1334 34.3238 36.057 40.5527 33.1487Z" fill="black"/>
<path d="M15.5685 21.1718C14.4921 20.7825 13.37 20.4848 12.2708 20.1412C10.5304 19.6145 8.74414 19.1565 7.02661 18.5611C6.04189 18.2176 5.51518 17.3932 5.58388 16.294C5.62969 15.2177 6.15639 14.4391 7.14111 14.0497C7.82812 13.7749 8.56093 13.6375 9.29375 13.5688C11.8128 13.3856 13.9196 14.3933 15.7059 15.9734C16.7593 14.9658 17.7211 14.0497 18.7287 13.0879C16.141 10.8666 13.141 9.72157 9.72885 9.76737C7.48462 9.79027 5.35488 10.3628 3.54575 11.8284C0.614502 14.1642 0.0190923 20.1412 4.89687 22.042C5.85869 22.4084 6.84341 22.7061 7.80522 23.0267C9.75175 23.645 11.7441 24.1946 13.6677 24.9045C14.8585 25.3625 15.3852 26.3702 15.2936 27.6984C15.202 28.9579 14.515 29.7823 13.37 30.2403C11.6296 30.9273 9.86626 30.8815 8.05713 30.4693C6.248 30.0571 4.85107 28.9579 3.52285 27.6755C2.49233 28.5915 1.50762 29.4617 0.5 30.3777C0.774805 30.6754 0.980908 30.9044 1.20991 31.1334C4.34726 33.9502 8.05713 34.7975 12.1334 34.3624C14.0112 34.1792 15.7288 33.5151 17.2402 32.3013C20.1485 29.8739 21.0874 23.2099 15.5685 21.1718Z" fill="black"/>
<path d="M78.3156 38.3699C77.9492 38.3241 77.6057 38.1867 77.3538 37.889C76.8958 37.6371 76.4607 37.3623 76.0256 37.0875C74.2623 38.1867 72.2928 38.9883 70.186 39.4005C69.7967 41.0264 69.2471 42.6065 68.5601 44.1408C73.1401 43.7973 77.308 42.034 80.6515 39.286C80.1019 39.0799 79.5293 38.8509 78.9797 38.6448C78.7507 38.5531 78.5217 38.4615 78.3156 38.3699Z" fill="#C81837"/>
<path d="M80.9949 32.3471C81.8422 33.7899 82.575 35.2784 83.1475 36.8585C86.1246 33.4692 88.0711 29.164 88.5062 24.4007C86.9719 25.1793 85.3688 25.7747 83.6971 26.1869C83.2162 28.4541 82.2773 30.538 80.9949 32.3471Z" fill="#9A1764"/>
<path d="M81.2009 12.9276C82.5062 14.8742 83.3994 17.0955 83.8345 19.4772C84.407 19.6375 84.9795 19.8207 85.552 20.0268C86.5596 20.3932 87.5672 20.7825 88.552 21.2405C88.2771 16.294 86.3306 11.7826 83.2849 8.27887C82.7353 9.8819 82.0482 11.4391 81.2009 12.9276Z" fill="#263677"/>
<path d="M63.3157 5.62242C63.7508 3.9736 64.3462 2.39347 65.1019 0.836243C60.27 1.22555 55.8731 3.19498 52.4609 6.24073C54.0411 6.79034 55.5754 7.47735 57.0181 8.34757C58.873 7.06515 61.0028 6.12623 63.3157 5.62242Z" fill="#02935F"/>
<path d="M49.9191 19.4313C50.3084 17.2329 51.1329 15.1719 52.2779 13.3627C51.4077 11.8971 50.6749 10.3399 50.1023 8.73685C47.2856 12.149 45.4994 16.4543 45.2017 21.1489C46.0032 20.7824 46.8505 20.4389 47.6749 20.1412C48.4306 19.8206 49.1634 19.6145 49.9191 19.4313Z" fill="#B5C412"/>
<path d="M76.575 8.25595C78.0406 7.40863 79.5749 6.72162 81.2009 6.17201C77.6742 3.05756 73.117 1.08813 68.1248 0.813324C68.8805 2.30185 69.4759 3.88198 69.9339 5.5308C72.3613 5.96591 74.6056 6.90483 76.575 8.25595Z" fill="#106AB1"/>
<path d="M50.0793 26.3702C48.4305 25.9808 46.8275 25.4083 45.2703 24.6984C45.7283 29.2098 47.5603 33.309 50.3541 36.5837C50.9267 35.0036 51.6595 33.5151 52.5526 32.0723C51.4076 30.3548 50.5603 28.4312 50.0793 26.3702Z" fill="#F7A521"/>
<path d="M57.5448 36.9959C56.7204 37.4997 55.8502 37.9806 54.98 38.4386C54.3388 38.7592 53.6976 39.0111 53.0334 39.2631C56.2853 41.9653 60.3616 43.7286 64.8042 44.1408C64.0943 42.6065 63.5676 41.0264 63.1554 39.3547C61.1402 38.8737 59.2394 38.0722 57.5448 36.9959Z" fill="#D63420"/>
<path d="M66.8654 39.7211C65.6746 39.7211 64.5066 39.6066 63.3845 39.3776C63.7738 41.0035 64.3463 42.5836 65.0563 44.1409C65.6517 44.1867 66.2471 44.2096 66.8654 44.2096C67.3463 44.2096 67.8272 44.1867 68.3081 44.1638C68.9951 42.6523 69.5447 41.0722 69.934 39.4463C68.9493 39.6295 67.9188 39.7211 66.8654 39.7211Z" fill="#B41D1D"/>
<path d="M69.934 39.4463C69.5447 41.0722 68.9951 42.6294 68.3081 44.1637C68.3997 44.1637 68.4684 44.1637 68.56 44.1408C69.247 42.6065 69.7966 41.0264 70.1859 39.4005C70.0943 39.4234 70.0256 39.4463 69.934 39.4463Z" fill="#B41D1D"/>
<path d="M63.1782 39.3318C63.5675 40.9806 64.1171 42.5836 64.8271 44.1179C64.9187 44.1179 64.9874 44.1408 65.079 44.1408C64.3461 42.6065 63.7965 41.0264 63.4072 39.3776C63.3156 39.3547 63.2469 39.3318 63.1782 39.3318Z" fill="#B41D1D"/>
<path d="M76.1858 36.9959C76.598 37.2478 77.0102 37.5226 77.4453 37.7517C77.5369 37.8433 77.6285 37.912 77.743 37.9578C77.8575 37.9807 77.9491 38.0265 78.0407 38.0952C78.1781 38.141 78.2926 38.1868 78.43 38.2097C79.2086 38.5303 80.0102 38.8509 80.8117 39.1257C81.5674 38.4845 82.3002 37.7975 82.9643 37.0417C82.4147 35.4616 81.7048 33.9502 80.8575 32.5304C79.6208 34.2937 78.0178 35.8051 76.1858 36.9959Z" fill="#7F1824"/>
<path d="M77.3536 37.889C77.491 37.889 77.6284 37.9119 77.7429 37.9577C77.6513 37.889 77.5368 37.8203 77.4452 37.7516C77.033 37.4997 76.5979 37.2478 76.1856 36.9959C76.1169 37.0417 76.0711 37.0646 76.0024 37.1104C76.4604 37.3852 76.8956 37.6371 77.3536 37.889Z" fill="#7F1824"/>
<path d="M78.0408 38.0952C78.1324 38.1639 78.224 38.2555 78.3156 38.37C78.5446 38.4616 78.7507 38.5532 78.9797 38.6219C79.5293 38.8509 80.1018 39.057 80.6514 39.2631C80.7201 39.2173 80.7888 39.1486 80.8346 39.1028C80.0331 38.828 79.2316 38.5303 78.453 38.1868C78.2927 38.1868 78.1782 38.1639 78.0408 38.0952Z" fill="#7F1824"/>
<path d="M80.8804 32.5304C81.7277 33.9502 82.4376 35.4616 82.9872 37.0417C83.033 36.973 83.1017 36.9272 83.1475 36.8585C82.575 35.3013 81.8422 33.7899 80.9949 32.3472C80.972 32.4159 80.9262 32.4617 80.8804 32.5304Z" fill="#7F1824"/>
<path d="M77.3538 37.889C77.6057 38.1638 77.9492 38.3241 78.3156 38.3699C78.0179 38.1638 77.6744 38.0493 77.3538 37.889Z" fill="#AE1B30"/>
<path d="M77.7429 37.9578C77.8345 38.0036 77.949 38.0723 78.0406 38.0952C77.949 38.0494 77.8574 38.0036 77.7429 37.9578Z" fill="#AE1B30"/>
<path d="M77.3538 37.889C77.6744 38.0493 78.0179 38.1638 78.3156 38.3699C78.2469 38.2554 78.1553 38.1638 78.0408 38.0951C77.9263 38.0493 77.8347 38.0035 77.7431 37.9577C77.6286 37.9348 77.4912 37.9119 77.3538 37.889Z" fill="#AE1B30"/>
<path d="M84.1094 22.5C84.1094 23.6908 83.9949 24.8587 83.7659 25.9809C85.4147 25.5458 86.9948 24.9274 88.5292 24.1488C88.575 23.5992 88.5979 23.0496 88.5979 22.5C88.5979 22.1794 88.5979 21.8588 88.5749 21.5382C87.0406 20.7825 85.4834 20.1871 83.9033 19.752C84.0178 20.6451 84.1094 21.5611 84.1094 22.5Z" fill="#2B1F48"/>
<path d="M83.697 26.2099C85.3687 25.7748 86.9718 25.2023 88.5061 24.4236C88.5061 24.332 88.529 24.2404 88.529 24.1488C86.9947 24.9274 85.4145 25.5458 83.7657 25.9809C83.7428 26.0496 83.7199 26.1183 83.697 26.2099Z" fill="#2B1F48"/>
<path d="M83.8345 19.4772C83.8574 19.5688 83.8574 19.6604 83.8803 19.7291C85.4833 20.1642 87.0405 20.7596 88.552 21.5153C88.552 21.4237 88.552 21.3092 88.5291 21.2176C87.5672 20.7596 86.5367 20.3703 85.5291 20.0039C84.9795 19.8207 84.407 19.6375 83.8345 19.4772Z" fill="#2B1F48"/>
<path d="M81.0865 12.7444C81.3155 12.3322 81.5445 11.92 81.7506 11.5078C82.3002 10.4086 82.7582 9.26359 83.1246 8.09567C82.575 7.47736 82.0025 6.88195 81.3842 6.33234C79.7582 6.88195 78.2239 7.54606 76.7583 8.37047C78.4529 9.56129 79.9186 11.0498 81.0865 12.7444Z" fill="#263261"/>
<path d="M81.0864 12.7444C81.1322 12.8131 81.178 12.8589 81.2009 12.9276C82.0482 11.4391 82.7353 9.88187 83.262 8.25594C83.2162 8.21014 83.1704 8.14144 83.1246 8.09564C82.7582 9.26356 82.3001 10.4086 81.7505 11.5078C81.5215 11.92 81.3154 12.3322 81.0864 12.7444Z" fill="#263261"/>
<path d="M76.7582 8.39332C78.2238 7.56891 79.7581 6.8819 81.384 6.35519C81.3153 6.30939 81.2695 6.24069 81.2008 6.19489C79.5749 6.74449 78.0406 7.43151 76.575 8.27882C76.6437 8.30172 76.6895 8.34752 76.7582 8.39332Z" fill="#263261"/>
<path d="M56.8351 8.48494C55.3923 7.63762 53.858 6.95061 52.2779 6.401C51.5451 7.06511 50.881 7.77502 50.2397 8.53074C50.8123 10.1567 51.5222 11.691 52.3924 13.1566C53.5603 11.3475 55.0717 9.76736 56.8351 8.48494Z" fill="#0C8F39"/>
<path d="M57.0182 8.37048C55.5526 7.52316 54.0412 6.81325 52.461 6.26364C52.4152 6.30944 52.3465 6.35524 52.2778 6.42394C53.858 6.95065 55.3694 7.66056 56.835 8.50788C56.8808 8.46208 56.9495 8.41628 57.0182 8.37048Z" fill="#0C8F39"/>
<path d="M52.3923 13.1566C51.5221 11.691 50.8122 10.1567 50.2397 8.53073C50.1939 8.59943 50.1481 8.64523 50.1023 8.71393C50.6748 10.317 51.4076 11.8742 52.2778 13.3398C52.3007 13.294 52.3465 13.2253 52.3923 13.1566Z" fill="#0C8F39"/>
<path d="M63.5447 5.59952C64.621 5.39341 65.7431 5.27891 66.8652 5.27891C67.827 5.27891 68.766 5.37051 69.682 5.50792C69.224 3.88199 68.6286 2.32476 67.8499 0.813336C67.5293 0.790436 67.1858 0.790436 66.8652 0.790436C66.3614 0.790436 65.8347 0.813336 65.3309 0.836237C65.1935 1.08814 65.079 1.34004 64.9645 1.61485C64.4149 2.92017 63.9111 4.24839 63.5447 5.59952Z" fill="#09544A"/>
<path d="M63.5446 5.59952C63.911 4.2484 64.4148 2.94308 64.9645 1.61486C65.079 1.34005 65.2164 1.08815 65.3309 0.836243C65.2393 0.836243 65.1706 0.836243 65.079 0.859143C64.3232 2.39347 63.7278 3.9965 63.2927 5.64532C63.3843 5.62242 63.4759 5.59952 63.5446 5.59952Z" fill="#09544A"/>
<path d="M69.9111 5.53082C69.4531 3.88199 68.8806 2.30186 68.102 0.813336C68.0104 0.813336 67.9417 0.813336 67.8501 0.790436C68.6287 2.30186 69.2241 3.85909 69.6821 5.48501C69.7737 5.50792 69.8424 5.53082 69.9111 5.53082Z" fill="#09544A"/>
<path d="M49.6442 22.5C49.6442 21.5382 49.7358 20.5993 49.8732 19.6603C48.2702 20.0496 46.6901 20.6451 45.1787 21.3779C45.1558 21.7443 45.1558 22.1107 45.1558 22.5C45.1558 23.1641 45.1787 23.8053 45.2474 24.4694C46.7817 25.1793 48.3847 25.7518 50.0335 26.1411C49.7816 24.9732 49.6442 23.7366 49.6442 22.5Z" fill="#AF8614"/>
<path d="M49.9191 19.4314C49.1634 19.6146 48.4306 19.8436 47.6749 20.1184C46.8275 20.439 46.0031 20.7596 45.2016 21.126C45.2016 21.2176 45.1787 21.3092 45.1787 21.3779C46.6901 20.6451 48.2474 20.0497 49.8733 19.6604C49.8962 19.5917 49.8962 19.5001 49.9191 19.4314Z" fill="#AF8614"/>
<path d="M50.0335 26.1412C48.3847 25.7519 46.7816 25.1794 45.2473 24.4695C45.2473 24.5382 45.2702 24.6298 45.2702 24.6985C46.8274 25.4084 48.4305 25.9809 50.0793 26.3702C50.0564 26.3015 50.0564 26.2099 50.0335 26.1412Z" fill="#AF8614"/>
<path d="M52.667 32.2326C51.7968 33.6525 51.0869 35.1639 50.5144 36.744C51.2472 37.5913 52.0487 38.3699 52.896 39.0798C54.4533 38.4844 55.9647 37.7287 57.3845 36.8585C55.5296 35.6448 53.9266 34.0647 52.667 32.2326Z" fill="#D63316"/>
<path d="M52.5524 32.0723C51.6593 33.4922 50.9265 35.0036 50.354 36.5837C50.3998 36.6524 50.4685 36.6982 50.5143 36.7669C51.0868 35.1868 51.7967 33.6754 52.6669 32.2555C52.6211 32.1868 52.5753 32.1181 52.5524 32.0723Z" fill="#D63316"/>
<path d="M57.5448 36.9959C57.499 36.9501 57.4303 36.9272 57.3845 36.8814C55.9417 37.7516 54.4532 38.5073 52.896 39.1027C52.9418 39.1485 53.0105 39.1943 53.0563 39.2401C53.7204 38.9882 54.3616 38.7363 55.0028 38.4157C55.873 37.9806 56.7204 37.4997 57.5448 36.9959Z" fill="#D63316"/>
<path d="M67.4836 25.5916L69.476 23.5992L74.537 18.5382C74.766 18.3092 75.1553 18.3092 75.4072 18.5382L77.3079 20.439C77.4453 20.3016 77.514 20.1184 77.514 19.9123V13.317C77.514 12.8818 77.1476 12.5154 76.7125 12.5154H70.1401C69.9111 12.5154 69.7279 12.607 69.5676 12.7444L71.1477 14.3246L71.6057 14.7826C71.8805 15.0574 71.8805 15.4925 71.6057 15.7673L66.9569 20.4161C66.6821 20.6909 66.247 20.6909 65.9722 20.4161L63.9112 18.355C63.6593 18.2634 63.3616 18.3092 63.1784 18.5153L59.9265 21.7672L57.8426 23.8511L56.5373 25.1565C55.7128 25.9809 55.7128 27.2862 56.5373 28.1106C57.3617 28.935 58.667 28.935 59.4914 28.1106L60.2929 27.3091L63.2242 24.3778C63.499 24.103 63.957 24.103 64.2318 24.3778L64.873 25.0191L65.8348 25.9809C66.1783 26.3244 66.7279 26.3244 67.0714 25.9809L67.4836 25.5916Z" fill="#189CD9"/>
<path d="M68.8805 25.6602L67.4148 27.1259L66.9797 27.561C66.9568 27.5839 66.911 27.6297 66.8652 27.6526V32.0953H68.8576V25.6602H68.8805Z" fill="#189CD9"/>
<path d="M71.766 32.0723V22.7519L69.7737 24.7442V32.0723H71.766Z" fill="#189CD9"/>
<path d="M74.6745 19.9352C74.6058 19.9581 74.5142 20.0039 74.4684 20.0726L72.6821 21.8588V32.0953H74.6745V19.9352Z" fill="#189CD9"/>
<path d="M64.7813 26.5763L64.1401 25.9351C64.0943 25.8893 64.0485 25.8664 64.0027 25.8206V32.0724H65.995V27.6984C65.9034 27.6526 65.8347 27.6068 65.766 27.5381L64.7813 26.5763Z" fill="#189CD9"/>
<path d="M58.1631 30.2632V32.0952H60.1554V28.8892L59.3539 29.6907C59.0333 30.0113 58.6211 30.1945 58.1631 30.2632Z" fill="#189CD9"/>
<path d="M61.0715 32.0723H63.0639V25.9808L61.0715 27.9732V32.0723Z" fill="#189CD9"/>
</svg>
