<svg width="75" height="76" viewBox="0 0 75 76" fill="none" xmlns="http://www.w3.org/2000/svg">
<path d="M37.5 76C58.2107 76 75 58.9868 75 38C75 17.0132 58.2107 0 37.5 0C16.7893 0 0 17.0132 0 38C0 58.9868 16.7893 76 37.5 76Z" fill="white"/>
<path d="M71.2104 36.4632C71.2028 36.3045 71.1953 36.1459 71.1859 35.9891C69.6712 35.2532 68.0943 34.6454 66.5156 34.07C65.6312 33.747 64.7374 33.4641 63.8399 33.2175C63.8644 33.3532 63.8907 33.489 63.9114 33.6266C64.1372 35.0506 64.2595 36.5109 64.2595 37.9999C64.2595 39.8827 64.0713 41.7215 63.7138 43.4972C63.6894 43.6234 63.6555 43.7457 63.6292 43.87C66.2296 43.1933 68.7285 42.2586 71.1125 41.0353C71.1257 40.89 71.1389 40.7467 71.1501 40.6014C71.2141 39.7413 71.2461 38.8735 71.2461 37.998C71.2442 37.4858 71.2311 36.9735 71.2104 36.4632Z" fill="#2B1F48"/>
<path d="M59.4213 53.6221C60.746 55.9101 61.8806 58.2803 62.7744 60.7575C67.4296 55.4035 70.4666 48.5683 71.1158 41.0353C68.7317 42.2605 66.2329 43.1952 63.6324 43.8699C62.8628 47.4329 61.4102 50.732 59.4213 53.6221Z" fill="#A2186A"/>
<path d="M59.7375 22.8442C61.7622 25.9178 63.181 29.4348 63.8396 33.2175C64.739 33.466 65.6309 33.7489 66.5153 34.07C68.0959 34.6454 69.6708 35.2532 71.1856 35.9891C70.7415 28.1522 67.7139 21.0187 62.9552 15.4526C62.1404 18.0235 61.066 20.4835 59.7375 22.8442Z" fill="#293980"/>
<path d="M31.8394 11.288C32.5281 8.67885 33.4595 6.15957 34.6243 3.72058C27.0807 4.33989 20.2352 7.47082 14.8988 12.2896C17.3713 13.1516 19.7403 14.2641 22.0096 15.6193C24.9186 13.553 28.2454 12.0525 31.8394 11.288Z" fill="#009B65"/>
<path d="M10.9488 33.1317C11.5659 29.6491 12.8323 26.3977 14.618 23.5076C13.2463 21.1738 12.1248 18.7233 11.2235 16.1677C6.8411 21.5809 4.05624 28.3799 3.599 35.8192C4.85971 35.2286 6.1543 34.7048 7.46393 34.2098C8.61363 33.774 9.77649 33.4165 10.9488 33.1317Z" fill="#BBCC11"/>
<path d="M52.5177 15.439C54.8001 14.1087 57.2011 13.0153 59.7244 12.1533C54.2149 7.23706 47.123 4.10804 39.3235 3.66077C40.5165 6.03668 41.4328 8.53684 42.1384 11.1345C45.9338 11.8226 49.4543 13.3154 52.5177 15.439Z" fill="#0E6EB9"/>
<path d="M11.2029 44.1375C8.61375 43.5182 6.1149 42.6275 3.69885 41.4883C4.40824 48.6332 7.27024 55.134 11.6169 60.3083C12.4994 57.8024 13.6604 55.4322 15.0434 53.1672C13.2577 50.4625 11.9424 47.4118 11.2029 44.1375Z" fill="#FFA921"/>
<path d="M22.8468 60.9525C21.5522 61.7668 20.2219 62.5256 18.8483 63.2233C17.8642 63.726 16.8443 64.1255 15.8207 64.5173C20.903 68.7875 27.2348 71.5763 34.1763 72.2396C33.0774 69.8216 32.2419 67.2889 31.6172 64.6607C28.4485 63.9573 25.4886 62.6843 22.8468 60.9525Z" fill="#DE3521"/>
<path d="M42.1746 64.8575C40.6203 65.1423 39.0228 65.2971 37.3876 65.2971C35.5304 65.2971 33.7184 65.106 31.9666 64.7409C31.8499 64.716 31.7351 64.6855 31.6204 64.6587C32.2432 67.2888 33.0786 69.8196 34.1794 72.2375C34.313 72.2509 34.4447 72.2624 34.5783 72.2739C35.506 72.3503 36.4412 72.3924 37.3876 72.3924C38.1422 72.3924 38.8892 72.3656 39.6306 72.3159C39.7567 72.3083 39.8846 72.3006 40.0107 72.2911C41.087 69.8578 41.9432 67.3596 42.5472 64.7868C42.423 64.8154 42.2988 64.8345 42.1746 64.8575Z" fill="#BC1D1E"/>
<path d="M56.2513 63.575C55.907 63.4374 54.2323 62.6498 53.7337 62.4033C53.028 61.9961 52.3318 61.5718 51.6469 61.136C48.9072 62.883 45.8344 64.1408 42.5491 64.7907C41.945 67.3634 41.0889 69.8617 40.0126 72.295C47.1403 71.7406 53.649 68.9423 58.8593 64.5976C57.9843 64.2707 57.1187 63.919 56.2513 63.575Z" fill="#D01738"/>
<path d="M59.4206 53.6224C59.3604 53.7085 59.3002 53.7945 59.24 53.8805C57.2642 56.6788 54.7823 59.0815 51.9278 60.9528C51.8337 61.014 51.7415 61.0751 51.6475 61.1363C52.3343 61.5721 53.7342 62.4036 53.7342 62.4036C54.2329 62.6502 55.9094 63.4396 56.2519 63.5753C57.1193 63.9213 57.9849 64.271 58.858 64.5979C58.9596 64.5138 59.0593 64.4278 59.159 64.3418C60.3539 63.3211 61.4791 62.2201 62.5235 61.0445C62.6062 60.9509 62.689 60.8553 62.7718 60.7597C61.8799 58.2806 60.7453 55.9104 59.4206 53.6224Z" fill="#871927"/>
<path d="M62.7253 15.1873C61.8711 14.2086 60.9622 13.2796 60.0045 12.4061C59.9123 12.322 59.8182 12.2379 59.7241 12.1538C57.2008 13.0159 54.7998 14.1111 52.5173 15.4396C52.6114 15.5046 52.7017 15.5734 52.7958 15.6403C55.4301 17.5173 57.7201 19.8607 59.5434 22.5558C59.6074 22.6514 59.6733 22.747 59.7373 22.8426C61.0657 20.4838 62.1401 18.0219 62.9568 15.4529C62.8796 15.365 62.8025 15.2771 62.7253 15.1873Z" fill="#28356A"/>
<path d="M14.8977 12.2896C14.8093 12.3698 14.719 12.4501 14.6305 12.5304C13.4959 13.5759 12.4346 14.6999 11.4486 15.8926C11.3734 15.9844 11.2962 16.0761 11.2209 16.1679C12.1223 18.7234 13.2437 21.1739 14.6155 23.5078C14.6757 23.4103 14.7378 23.3128 14.7999 23.2153C16.6345 20.331 18.9866 17.8212 21.7263 15.8219C21.8203 15.7531 21.9144 15.6862 22.0085 15.6174C19.7392 14.2641 17.3721 13.1497 14.8977 12.2896Z" fill="#07973D"/>
<path d="M39.3224 3.6611C39.1925 3.65346 39.0608 3.64772 38.931 3.64008C38.4192 3.61714 37.9036 3.60376 37.3861 3.60376C36.5845 3.60376 35.7886 3.63434 35.0002 3.68977C34.8741 3.69933 34.748 3.70698 34.6238 3.71845C33.4591 6.15744 32.5277 8.67862 31.839 11.2858C31.9575 11.261 32.0761 11.238 32.1946 11.2151C33.8749 10.8806 35.6098 10.7009 37.388 10.7009C38.8858 10.7009 40.3516 10.8309 41.7817 11.0698C41.9021 11.0889 42.0207 11.1138 42.1411 11.1348C41.4317 8.53909 40.5153 6.03702 39.3224 3.6611Z" fill="#085D51"/>
<path d="M11.1187 43.7669C10.7255 41.9071 10.5129 39.9803 10.5129 38.0001C10.5129 36.471 10.6427 34.9724 10.8817 33.5101C10.9024 33.3821 10.9268 33.2559 10.9475 33.1298C9.77524 33.4165 8.61237 33.772 7.4608 34.2097C6.15116 34.7048 4.85658 35.2285 3.59587 35.8192C3.58646 35.9568 3.57705 36.0944 3.56953 36.232C3.5413 36.8169 3.52625 37.4076 3.52625 38.0001C3.52625 39.0495 3.57517 40.0855 3.66549 41.11C3.67678 41.2362 3.68619 41.3623 3.69936 41.4885C6.11541 42.6277 8.61426 43.5165 11.2034 44.1377C11.1752 44.0135 11.1451 43.8911 11.1187 43.7669Z" fill="#B78B13"/>
<path d="M22.5809 60.7783C19.6869 58.8343 17.1862 56.338 15.2236 53.4345C15.1634 53.3466 15.1032 53.2587 15.043 53.1688C13.6599 55.4339 12.499 57.8041 11.6165 60.31C11.6974 60.4074 11.7802 60.5049 11.863 60.6005C13.0014 61.927 14.2395 63.1618 15.5642 64.2972C15.6507 64.3718 15.7354 64.4463 15.822 64.5189C16.8437 64.1271 17.8654 63.7257 18.8496 63.2249C20.2213 62.5253 21.5516 61.7684 22.8481 60.9541C22.7578 60.8949 22.6674 60.8375 22.5809 60.7783Z" fill="#E14916"/>
<path d="M38.3229 42.8875L41.4183 39.7432L49.3099 31.7285C49.6806 31.352 50.2828 31.352 50.6534 31.7285L53.6001 34.7219C53.8033 34.4982 53.9313 34.2 53.9313 33.8713V23.4635C53.9313 22.7677 53.3762 22.2039 52.6913 22.2039H42.4456C42.1032 22.2039 41.7927 22.3453 41.5688 22.5728L44.0338 25.0767L44.73 25.784C45.159 26.2198 45.159 26.9251 44.73 27.3609L37.4705 34.7352C37.0415 35.171 36.3472 35.171 35.9182 34.7352L32.7062 31.4724C32.3186 31.3252 31.8651 31.4074 31.5527 31.7247L26.4703 36.8875L23.2188 40.1905L21.1942 42.2472C19.924 43.5374 19.924 45.6304 21.1942 46.9226C22.4643 48.2128 24.5266 48.2128 25.7967 46.9226L27.0499 45.6515L31.6073 41.02C32.0457 40.5747 32.757 40.5747 33.1954 41.02L34.204 42.0446L34.2134 42.0369L35.7244 43.5718C36.2569 44.1127 37.1224 44.1127 37.6549 43.5718L38.3229 42.8875Z" fill="#15A1E0"/>
<path d="M40.4997 43.0059L38.221 45.3206L37.5493 46.003C37.4984 46.0565 37.442 46.0986 37.3837 46.1406V53.1843H40.4997V43.0059Z" fill="#15A1E0"/>
<path d="M45.0247 53.1847V38.4131L41.9087 41.5784V53.1847H45.0247Z" fill="#15A1E0"/>
<path d="M49.5454 33.9442C49.423 33.9901 49.3064 34.0627 49.2066 34.164L46.4293 36.9853V53.1867H49.5454V33.9442Z" fill="#15A1E0"/>
<path d="M34.1084 44.4687L34.099 44.4783L33.0904 43.4537C33.0208 43.383 32.9418 43.3276 32.8608 43.2798V53.1849H35.9769V46.2597C35.8489 46.1947 35.7247 46.1144 35.6175 46.0036L34.1084 44.4687Z" fill="#15A1E0"/>
<path d="M23.8174 50.2924V53.1844H26.9334V48.098L25.6934 49.3558C25.1665 49.891 24.5042 50.2006 23.8174 50.2924Z" fill="#15A1E0"/>
<path d="M28.3422 53.1847H31.4563V43.5033L28.3422 46.6686V53.1847Z" fill="#15A1E0"/>
</svg>
