<svg width="212" height="104" viewBox="0 0 212 104" fill="none" xmlns="http://www.w3.org/2000/svg">
<path d="M24.7238 45.5974H33.6619C37.3456 45.5974 40.6302 47.3287 42.7434 50.019C43.1081 49.9444 43.4727 49.8697 43.8402 49.8152C44.2135 49.7606 44.3398 49.6171 44.179 49.261C43.1368 46.9526 42.241 44.5666 41.0322 42.3501C37.716 36.2689 33.6647 30.6155 29.1713 25.3498C26.8945 22.6824 24.5085 20.1156 22.0421 17.6234C19.9117 15.47 16.4117 13.13 14.9331 10.6292C19.2198 12.1882 23.5093 16.1275 26.9146 19.1049C36.0449 27.0868 41.572 36.8862 47.3948 47.3373C46.9325 44.291 46.0424 41.2131 45.0662 38.2759C44.1331 35.465 43.0133 32.7029 42.4046 29.8058C41.684 26.3863 41.7213 22.6709 43.6134 19.6246C44.6528 17.9478 46.1774 16.607 47.5326 15.1829C47.857 14.8412 48.2044 14.4478 48.1987 13.977C48.193 13.6353 48.0006 13.3309 47.8082 13.0496C44.337 7.99627 38.675 5.7309 32.901 4.44461C23.004 2.2424 13.0065 1.47292 2.94297 0.48236C1.96964 0.387611 1.01066 0.1694 0 0C0.38474 0.74651 0.809678 1.43847 1.11402 2.17923C2.70754 6.03524 3.93066 10.2703 4.61975 14.4737C5.32893 18.8063 5.09349 23.2366 5.93763 27.5433C7.12917 33.6274 9.83096 39.5794 14.5053 43.7771C15.8892 45.0203 17.4138 46.0654 19.036 46.9296C20.707 46.074 22.6365 45.5974 24.7238 45.5974Z" fill="url(#paint0_linear_39_2539)"/>
<path d="M65.627 27.1672C65.6614 27.0351 65.6959 26.9059 65.7275 26.771C66.3735 24.0807 66.4567 21.3444 66.3563 18.5824C66.2328 15.2058 66.1983 11.3814 67.0511 7.89291C67.0224 7.8843 66.9793 7.85846 66.9621 7.86994C63.1692 10.2731 59.0089 11.9097 54.9088 13.6784C53.0942 14.4622 51.2509 15.2173 49.5397 16.1964C47.1882 17.5459 45.5057 19.5327 44.7792 22.223C44.228 24.2558 44.4117 26.28 44.7907 28.3157C45.2128 30.5839 46.1431 32.6167 47.4408 34.5002C47.4983 34.5835 47.57 34.6582 47.6734 34.7816C50.6078 27.0036 55.6151 20.6841 61.1881 14.7493C61.2369 14.778 61.2886 14.8067 61.3374 14.8355C61.1852 15.0795 61.0331 15.3236 60.8809 15.5676C58.1073 19.9892 55.6467 24.5659 53.9699 29.5015C55.9453 27.9884 58.5725 27.1615 61.7135 27.1615L65.627 27.1672Z" fill="url(#paint1_linear_39_2539)"/>
<path d="M80.5283 29.5158H62.0838C56.9759 29.5158 52.8357 33.6561 52.8357 38.7639C52.8357 43.8718 56.9759 48.012 62.0838 48.012H80.5283C85.6362 48.012 89.7764 43.8718 89.7764 38.7639C89.7793 33.6561 85.6362 29.5158 80.5283 29.5158Z" fill="url(#paint2_linear_39_2539)"/>
<path d="M79.9915 38.7381C79.9915 34.9108 77.6543 31.629 74.3266 30.2307C73.2155 29.7627 72.0584 29.5187 70.7749 29.5187C70.7663 29.5187 61.7106 29.5072 61.7106 29.5072C56.8238 29.5072 52.2529 32.0137 52.2357 38.7237C52.2184 44.4259 55.839 47.9718 61.2311 47.9718H61.435V58.9254C69.6179 68.2023 79.9915 62.5489 79.9915 54.4837V38.7496V38.7467C79.9915 38.7381 79.9915 38.7381 79.9915 38.7381Z" fill="url(#paint3_linear_39_2539)"/>
<path d="M59.3333 57.2343H24.4167V75.7477H59.3333C70.7205 75.7477 79.9513 67.4586 79.9513 57.2343V38.7208C79.9513 48.9452 70.7205 57.2343 59.3333 57.2343Z" fill="url(#paint4_linear_39_2539)"/>
<path d="M52.5657 70.1059C54.5764 70.1059 56.2064 68.4759 56.2064 66.4652C56.2064 64.4545 54.5764 62.8245 52.5657 62.8245C50.555 62.8245 48.925 64.4545 48.925 66.4652C48.925 68.4759 50.555 70.1059 52.5657 70.1059Z" fill="white"/>
<path d="M42.864 84.1374V62.8417C42.864 62.8417 42.8525 59.2901 42.8525 57.108C42.8525 52.0432 38.7352 47.9402 33.659 47.9402H24.721C19.6447 47.9402 15.1714 51.489 15.157 57.2429C15.1427 62.5173 19.4437 66.0316 24.3391 66.2384V84.1402C24.3391 94.6 32.634 103.079 42.864 103.079H61.389C51.1589 103.076 42.864 94.5971 42.864 84.1374Z" fill="url(#paint5_linear_39_2539)"/>
<mask id="mask0_39_2539" style="mask-type:luminance" maskUnits="userSpaceOnUse" x="14" y="47" width="48" height="57">
<path d="M42.798 84.1489V62.747C42.798 62.747 42.7865 59.1781 42.7865 56.9845C42.7865 51.8968 38.6491 47.7709 33.547 47.7709H24.5659C19.4638 47.7709 14.9704 51.3369 14.9532 57.1195C14.9388 62.4197 19.2599 65.9513 24.1783 66.158V84.1489C24.1783 94.6603 32.5134 103.182 42.7951 103.182H61.4148C51.133 103.182 42.798 94.6603 42.798 84.1489Z" fill="white"/>
</mask>
<g mask="url(#mask0_39_2539)">
<path d="M35.7464 86.0065C35.1779 86.041 34.6266 86.0898 34.0753 86.107C32.5392 86.1558 31.0347 85.9893 29.6049 85.3835C27.2189 84.3786 25.8379 82.5152 25.1287 80.089C24.5889 78.2457 24.52 76.3622 24.7037 74.4643C24.7526 73.9676 24.8215 73.8844 25.321 73.8327C27.9568 73.5657 30.5237 73.7695 32.9096 75.0386C34.618 75.9459 35.7808 77.3384 36.4297 79.1587C36.4584 79.2363 36.4842 79.3138 36.513 79.3884C36.5158 79.3971 36.5244 79.4028 36.5675 79.4487C36.6077 79.3281 36.6422 79.2305 36.6766 79.13C37.5408 76.7498 39.2348 75.2281 41.5921 74.4155C43.6421 73.7092 45.7553 73.5915 47.8972 73.8442C48.1528 73.8729 48.3279 73.9791 48.3595 74.249C48.6638 76.8934 48.4858 79.4717 47.2541 81.8864C46.0999 84.1518 44.1934 85.4266 41.727 85.9089C40.3403 86.1788 38.9449 86.1587 37.5495 86.0008C37.4892 85.9951 37.4289 85.9922 37.291 85.9836C37.4174 87.4622 37.5437 88.9179 37.6758 90.4655C38.3046 90.0721 38.8501 89.7477 39.3755 89.3945C40.8657 88.404 42.4506 87.6517 44.2422 87.4192C45.5285 87.2526 46.7631 87.4077 47.9145 88.0537C48.9079 88.6136 49.9042 89.1677 50.9091 89.7104C51.1934 89.8626 51.2967 90.0635 51.2939 90.3765C51.2881 93.0524 51.291 95.7284 51.291 98.4043C51.291 98.9068 51.1216 99.0475 50.6277 98.9901C48.1815 98.7116 45.8501 99.1308 43.645 100.207C41.4428 101.287 39.1257 101.672 36.6967 101.497C34.2993 101.324 32.1545 100.474 30.1418 99.1853C27.7443 97.6492 25.3038 96.1849 22.8834 94.6861C21.6603 93.9282 21.422 92.5241 22.3838 91.4503C22.7025 91.0914 23.1533 90.8502 23.5438 90.5545C23.6529 90.4712 23.7792 90.3908 23.8539 90.2817C24.3678 89.5381 25.0512 89.0844 25.9556 88.9667C26.1078 88.9466 26.2743 88.8777 26.392 88.7801C27.3165 87.9963 28.6402 87.8384 29.7082 88.4528C31.3649 89.406 33.0044 90.3909 34.6496 91.3613C35.0515 91.5968 35.2152 91.5422 35.264 91.0885C35.442 89.4548 35.597 87.8183 35.7578 86.1817C35.7664 86.1271 35.7521 86.0668 35.7464 86.0065ZM50.3894 98.0598C50.398 97.9622 50.4124 97.8933 50.4124 97.8215C50.4124 95.4441 50.4124 93.0668 50.4181 90.6894C50.4181 90.5057 50.3464 90.4167 50.1942 90.3334C49.284 89.8367 48.3767 89.3342 47.4723 88.826C46.4875 88.2719 45.4309 88.1542 44.337 88.3035C42.8095 88.5102 41.4514 89.1505 40.1536 89.9516C39.2377 90.5172 38.3189 91.0914 37.36 91.5795C35.9961 92.2715 34.5089 92.5442 32.9986 92.7194C31.9765 92.8371 31.1611 93.3223 30.7533 94.3158C30.3772 95.2374 30.9314 96.1189 31.9191 96.2108C32.1344 96.2309 32.3526 96.2366 32.5651 96.2222C33.903 96.1418 35.2209 95.9179 36.5101 95.5504C37.5667 95.2518 38.6003 94.8785 39.6426 94.5311C40.0704 94.3875 40.4264 94.6 40.323 94.9819C40.2828 95.1283 40.1134 95.2891 39.9641 95.3494C38.5056 95.9466 37.0039 96.4089 35.4592 96.7103C34.2792 96.94 33.0962 97.1841 31.8817 97.0922C31.2357 97.0434 30.6529 96.8252 30.248 96.2825C29.7513 95.6193 29.625 94.8871 29.8862 94.0947C29.9293 93.9597 29.9781 93.865 29.8116 93.7645C28.5224 92.995 27.2534 92.1968 25.9527 91.4474C24.9736 90.8847 23.7362 91.1661 23.0356 92.0446C22.47 92.7567 22.5934 93.463 23.3686 93.9425C25.7718 95.4269 28.1951 96.8826 30.5725 98.4101C32.4875 99.639 34.5175 100.466 36.8029 100.627C39.0195 100.782 41.1471 100.454 43.154 99.4638C44.805 98.6484 46.5478 98.1718 48.3882 98.0655C49.04 98.0282 49.6975 98.0598 50.3894 98.0598ZM35.2841 85.1452C35.3157 85.105 35.3473 85.0677 35.3788 85.0275C35.2755 84.9614 35.1549 84.9097 35.0716 84.8236C33.0331 82.7879 30.9974 80.7494 28.9589 78.7108C28.8871 78.6391 28.8067 78.5701 28.7464 78.4869C28.5942 78.2744 28.5942 78.0591 28.7923 77.8782C28.979 77.7088 29.1828 77.7145 29.3752 77.8753C29.4383 77.927 29.4958 77.9873 29.5532 78.0476C31.6118 80.1062 33.6733 82.1649 35.7291 84.2293C35.8066 84.3068 35.8411 84.4245 35.8985 84.525C35.933 84.4963 35.9703 84.4647 36.0048 84.436C36.0162 84.3786 36.0363 84.3183 36.0421 84.2609C36.1541 83.0664 36.1569 81.8778 35.9301 80.6948C35.4449 78.1682 34.0409 76.388 31.6434 75.4147C30.3026 74.8692 28.8957 74.6452 27.4572 74.6194C26.8342 74.6079 26.2111 74.6452 25.5996 74.6596C25.3612 76.5574 25.5536 79.1501 26.4178 81.0422C27.3079 82.9918 28.7579 84.2838 30.828 84.8695C32.2923 85.2859 33.7825 85.2859 35.2841 85.1452ZM47.5441 74.7113C45.629 74.3954 42.8554 74.763 41.1528 75.541C39.2463 76.411 37.9744 77.838 37.3801 79.8507C36.9982 81.1485 36.9322 82.4807 37.0326 83.8244C37.047 84.0254 37.07 84.2264 37.0872 84.4274C37.1217 84.4503 37.1561 84.4762 37.1877 84.4992C37.248 84.4073 37.2968 84.3011 37.3743 84.2264C39.5765 82.0185 41.7816 79.8134 43.9867 77.6083C44.0527 77.5423 44.1159 77.4734 44.1877 77.4159C44.3886 77.2609 44.5954 77.2666 44.7734 77.4389C44.9514 77.614 44.9543 77.8236 44.8078 78.0246C44.7533 78.0993 44.6844 78.1624 44.6183 78.2256C42.4075 80.4393 40.1967 82.653 37.9859 84.8667C37.917 84.9356 37.8509 85.0131 37.7648 85.1079C37.8337 85.128 37.871 85.1481 37.9084 85.1509C39.143 85.2658 40.3747 85.2773 41.595 85.0332C43.7685 84.6025 45.4424 83.4741 46.4731 81.4787C47.5699 79.3511 47.7192 77.0628 47.5441 74.7113ZM31.2013 92.4122C31.1812 92.3892 31.1668 92.3605 31.141 92.3461C29.8489 91.5881 28.5626 90.8187 27.2562 90.0836C26.9892 89.9343 26.6562 89.8654 26.3461 89.8424C25.8953 89.8109 25.4761 89.9458 25.1718 90.1956C25.6886 90.4167 26.2111 90.6177 26.7136 90.8617C27.0524 91.0254 27.3653 91.2522 27.6898 91.4474C28.6 91.9987 29.513 92.5471 30.4145 93.0926C30.6902 92.8543 30.9428 92.6361 31.2013 92.4122ZM27.4601 89.1562C29.0479 90.0865 30.5868 90.9881 32.1258 91.8896C32.1688 91.9155 32.2234 91.9499 32.2665 91.9442C32.6598 91.8781 33.0532 91.8063 33.5154 91.7231C32.0167 90.8445 30.5926 89.986 29.1455 89.1677C28.6315 88.8777 28.0602 88.9064 27.4601 89.1562ZM36.5704 88.2662C36.5589 88.2662 36.5474 88.2662 36.5359 88.269C36.424 89.2022 36.3091 90.1353 36.1971 91.0742C36.8575 90.9421 36.8862 90.9077 36.8029 90.3018C36.7972 90.2616 36.7943 90.2214 36.7915 90.1784C36.7197 89.541 36.645 88.9036 36.5704 88.2662Z" fill="url(#paint6_linear_39_2539)"/>
</g>
<path d="M106.34 57.0477C106.521 58.334 106.88 59.2959 107.414 59.9333C108.39 61.0932 110.061 61.6732 112.43 61.6732C113.848 61.6732 115 61.5211 115.884 61.2138C117.561 60.6281 118.402 59.5399 118.402 57.9464C118.402 57.0162 117.992 56.2955 117.17 55.7873C116.349 55.2906 115.043 54.8513 113.26 54.4694L110.211 53.8004C107.213 53.1372 105.154 52.4194 104.032 51.6413C102.134 50.3406 101.184 48.3107 101.184 45.5457C101.184 43.022 102.111 40.9289 103.969 39.2578C105.826 37.5897 108.554 36.7542 112.152 36.7542C115.158 36.7542 117.719 37.5409 119.841 39.1143C121.962 40.6877 123.074 42.9732 123.177 45.9649H117.521C117.417 44.2709 116.659 43.0679 115.247 42.353C114.305 41.8821 113.136 41.6467 111.741 41.6467C110.188 41.6467 108.944 41.9539 108.017 42.5626C107.09 43.1741 106.627 44.0269 106.627 45.1237C106.627 46.1315 107.084 46.8808 108 47.3776C108.588 47.7077 109.835 48.0982 111.741 48.5433L116.685 49.709C118.853 50.22 120.475 50.9005 121.558 51.7533C123.237 53.0797 124.076 54.9948 124.076 57.5071C124.076 60.0797 123.079 62.2188 121.09 63.9185C119.1 65.6182 116.289 66.471 112.657 66.471C108.947 66.471 106.03 65.6326 103.906 63.9587C101.781 62.2848 100.719 59.9792 100.719 57.0506H106.34V57.0477Z" fill="#575756"/>
<path d="M149.698 53.5506C148.05 54.9259 145.696 55.615 142.632 55.615H136.766V65.7446H130.918V37.5753H143.014C145.802 37.5753 148.024 38.3017 149.684 39.7545C151.343 41.2074 152.17 43.4555 152.17 46.5018C152.173 49.8238 151.349 52.1753 149.698 53.5506ZM145.208 43.401C144.461 42.7779 143.419 42.4649 142.075 42.4649H136.772V50.7598H142.075C143.419 50.7598 144.464 50.421 145.208 49.7463C145.951 49.0716 146.327 48.0006 146.327 46.5363C146.325 45.072 145.951 44.0269 145.208 43.401Z" fill="#575756"/>
<path d="M164.646 37.5724H171.307L181.273 65.7417H174.89L173.033 59.9505H162.659L160.75 65.7417H154.594L164.646 37.5724ZM164.258 55.0982H171.473L167.916 44.0125L164.258 55.0982Z" fill="#575756"/>
<path d="M203.946 38.184C205.922 38.8329 207.524 40.0244 208.747 41.7586C209.729 43.1598 210.398 44.6758 210.754 46.3066C211.11 47.9374 211.291 49.4908 211.291 50.9694C211.291 54.7163 210.539 57.889 209.034 60.4874C206.993 63.9903 203.846 65.7417 199.585 65.7417H187.44V37.5724H199.585C201.334 37.5983 202.786 37.8021 203.946 38.184ZM193.154 42.4649V60.8492H198.589C201.371 60.8492 203.309 59.4796 204.409 56.7405C205.009 55.236 205.307 53.4473 205.307 51.3714C205.307 48.5059 204.857 46.3037 203.958 44.7676C203.059 43.2316 201.268 42.4649 198.589 42.4649H193.154Z" fill="#575756"/>
<path d="M178.559 92.8917V77.7863H182.229V92.8917H178.559Z" fill="#92BF1F"/>
<path d="M191.916 93.2305C188.715 93.2305 186.027 91.0111 186.027 87.534C186.027 84.057 188.715 81.9237 191.916 81.9237C195.138 81.9237 197.828 84.057 197.828 87.534C197.825 91.0139 195.138 93.2305 191.916 93.2305ZM191.916 84.8236C190.274 84.8236 189.421 86.1674 189.421 87.534C189.421 88.9007 190.297 90.2875 191.939 90.2875C193.581 90.2875 194.457 88.9007 194.457 87.534C194.454 86.1702 193.558 84.8236 191.916 84.8236Z" fill="#92BF1F"/>
<path d="M204.808 82.231V92.8888H201.566V82.231H197.773V79.4631H208.604V82.231H204.808Z" fill="#92BF1F"/>
<defs>
<linearGradient id="paint0_linear_39_2539" x1="36.9227" y1="57.824" x2="21.0546" y2="-1.68154" gradientUnits="userSpaceOnUse">
<stop stop-color="#006633"/>
<stop offset="0.0361" stop-color="#0B6D31"/>
<stop offset="0.1864" stop-color="#34862C"/>
<stop offset="0.3405" stop-color="#569A27"/>
<stop offset="0.4969" stop-color="#70AB24"/>
<stop offset="0.6566" stop-color="#83B621"/>
<stop offset="0.8215" stop-color="#8EBD20"/>
<stop offset="1" stop-color="#92BF1F"/>
</linearGradient>
<linearGradient id="paint1_linear_39_2539" x1="64.5283" y1="50.4625" x2="48.6602" y2="-9.04302" gradientUnits="userSpaceOnUse">
<stop offset="0.0742251" stop-color="#569A27"/>
<stop offset="0.699938" stop-color="#92BF1F"/>
</linearGradient>
<linearGradient id="paint2_linear_39_2539" x1="52.8363" y1="38.7655" x2="89.7783" y2="38.7655" gradientUnits="userSpaceOnUse">
<stop stop-color="#2B2B65"/>
<stop offset="1" stop-color="#35A7DF"/>
</linearGradient>
<linearGradient id="paint3_linear_39_2539" x1="52.2371" y1="46.6132" x2="79.9929" y2="46.6132" gradientUnits="userSpaceOnUse">
<stop stop-color="#2B2B65"/>
<stop offset="1" stop-color="#1D70B6"/>
</linearGradient>
<linearGradient id="paint4_linear_39_2539" x1="24.4154" y1="57.2351" x2="79.95" y2="57.2351" gradientUnits="userSpaceOnUse">
<stop stop-color="#2B2B65"/>
<stop offset="1" stop-color="#35A7DF"/>
</linearGradient>
<linearGradient id="paint5_linear_39_2539" x1="38.2747" y1="94.2623" x2="38.2747" y2="50.9675" gradientUnits="userSpaceOnUse">
<stop stop-color="#006633"/>
<stop offset="1" stop-color="#92BF1F"/>
</linearGradient>
<linearGradient id="paint6_linear_39_2539" x1="21.7958" y1="87.6337" x2="51.2993" y2="87.6337" gradientUnits="userSpaceOnUse">
<stop stop-color="#92BF1F"/>
<stop offset="0.2037" stop-color="#B7CF20"/>
<stop offset="0.4109" stop-color="#D4DC20"/>
<stop offset="0.6155" stop-color="#EAE521"/>
<stop offset="0.8142" stop-color="#F7EB21"/>
<stop offset="1" stop-color="#FBED21"/>
</linearGradient>
</defs>
</svg>
