<svg width="77" height="77" viewBox="0 0 77 77" fill="none" xmlns="http://www.w3.org/2000/svg">
<g filter="url(#filter0_d_153_775)">
<circle cx="41" cy="36" r="32" fill="url(#paint0_linear_153_775)" fill-opacity="0.7"/>
<path d="M40.6559 4.68811C23.1728 4.68811 9 18.8609 9 36.344C9 53.8271 23.1728 67.9999 40.6559 67.9999C58.139 67.9999 72.3118 53.8271 72.3118 36.344C72.3118 34.252 72.1089 32.2073 71.7216 30.2287M49.6491 5.98377C51.7909 6.61725 53.8382 7.47121 55.7644 8.51936M71.7216 30.2287C71.3571 28.3664 70.8294 26.5626 70.1538 24.8328L71.7216 30.2287ZM63.3187 14.242C64.0791 15.0217 64.7997 15.8404 65.477 16.6949L63.3187 14.242Z" stroke="white" stroke-width="4" stroke-linecap="round" stroke-linejoin="round"/>
</g>
<path d="M37.9977 17.5831C31.8983 17.5831 26.9346 22.5468 26.9346 28.6463C26.9346 31.0837 27.7286 33.3374 29.0678 35.1664H32.24C34.9954 35.1664 37.3005 37.116 37.8476 39.7055C37.897 39.7055 37.9464 39.7094 37.9957 39.7094C40.5339 39.7094 42.8745 38.8482 44.743 37.4043C42.916 37.0745 41.5274 35.9842 40.8223 34.3803C39.969 34.803 39.009 35.042 37.9938 35.042C34.468 35.042 31.598 32.174 31.598 28.6463C31.598 27.9885 31.6988 27.3525 31.8844 26.754C31.1971 26.1812 30.7586 25.3161 30.7586 24.3502C30.7586 22.6239 32.159 21.2234 33.8853 21.2234C34.9006 21.2234 35.8033 21.7074 36.3741 22.4579C36.8916 22.3217 37.4328 22.2505 37.9918 22.2505C40.7057 22.2505 43.0286 23.9512 43.9549 26.3412C44.6305 26.12 45.3771 26.0074 46.1751 26.0074L48.7349 26.0113C47.5557 21.178 43.1905 17.5831 37.9977 17.5831Z" fill="url(#paint1_linear_153_775)"/>
<path d="M37.249 25.6243C37.249 26.839 36.2634 27.8247 35.0486 27.8247C34.6378 27.8247 34.2526 27.7121 33.9247 27.5146C33.824 27.874 33.7687 28.2533 33.7687 28.6444C33.7687 30.9475 35.6352 32.816 37.9403 32.816C38.6139 32.816 39.2479 32.656 39.8108 32.3736C39.6508 31.9074 39.5659 31.3879 39.5659 30.827C39.5699 29.152 40.2829 28.2079 40.8774 27.7101C41.1579 27.4751 41.4779 27.2854 41.8275 27.1393C41.2231 25.5808 39.7101 24.4767 37.9383 24.4767C37.6184 24.4767 37.3063 24.5142 37.006 24.5833C37.006 24.5952 37.006 24.609 37.0041 24.6209C37.1601 24.9211 37.249 25.2608 37.249 25.6243ZM38.8746 28.2671C38.924 28.3836 38.9536 28.5101 38.9536 28.6444C38.9536 28.7787 38.9259 28.9051 38.8746 29.0216C38.7245 29.393 38.363 29.6537 37.9383 29.6537C37.3794 29.6537 36.927 29.2014 36.927 28.6424C36.927 28.0834 37.3794 27.6311 37.9383 27.6311C38.363 27.635 38.7245 27.8977 38.8746 28.2671Z" fill="url(#paint2_linear_153_775)"/>
<path d="M37.004 24.6182C37.0059 24.6065 37.0059 24.5929 37.0059 24.5812C37.0001 24.5831 36.9942 24.5831 36.9884 24.5851C36.9942 24.5948 36.9981 24.6084 37.004 24.6182Z" fill="url(#paint3_linear_153_775)"/>
<path d="M38.8746 29.0236C38.924 28.907 38.9536 28.7806 38.9536 28.6463C38.9536 28.512 38.926 28.3856 38.8746 28.269C38.922 28.3856 38.9497 28.512 38.9497 28.6463C38.9497 28.7806 38.922 28.907 38.8746 29.0236Z" fill="url(#paint4_linear_153_775)"/>
<path d="M45.9441 36.3455C45.9243 36.3455 45.9065 36.3435 45.8887 36.3435C45.9401 36.3494 45.9935 36.3514 46.047 36.3554V36.3455H45.9441Z" fill="url(#paint5_linear_153_775)"/>
<path d="M59.0376 49.6525C59.0297 49.6801 59.0119 49.7097 58.9823 49.7097H56.0353C55.1188 49.7097 54.3781 50.4524 54.3781 51.3669C54.3781 52.2815 55.1207 53.0241 56.0353 53.0241H57.1828H57.2658C57.6134 53.0064 58.9349 52.7219 59.0376 49.6525Z" fill="url(#paint6_linear_153_775)"/>
<path d="M60.7066 45.3228C59.792 45.3228 59.0494 46.0654 59.0494 46.98V49.2791V49.6386C59.0494 49.6445 59.0395 49.6445 59.0375 49.6504C58.9348 52.7199 57.6134 53.0043 57.2657 53.0221H58.9822C60.8468 53.0221 62.3657 51.5052 62.3657 49.6386V46.978C62.3638 46.0654 61.6211 45.3228 60.7066 45.3228Z" fill="url(#paint7_linear_153_775)"/>
<path d="M59.4584 22.6118C59.4821 22.6177 59.5078 22.6335 59.5078 22.6592V25.1914C59.5078 25.9776 60.1457 26.6156 60.9319 26.6156C61.718 26.6156 62.356 25.9776 62.356 25.1914V24.2058V24.1347C62.3382 23.8345 62.0953 22.6987 59.4584 22.6118Z" fill="url(#paint8_linear_153_775)"/>
<path d="M57.1633 22.6023H59.1385H59.4486C59.4545 22.6023 59.4525 22.6102 59.4584 22.6121C62.0954 22.699 62.3383 23.8348 62.3541 24.135V22.6615C62.3541 21.0596 61.0505 19.756 59.4486 19.756H57.1633C56.3771 19.756 55.7391 20.394 55.7391 21.1801C55.7391 21.9662 56.3771 22.6023 57.1633 22.6023Z" fill="url(#paint9_linear_153_775)"/>
<path d="M55.3874 26.9493H50.5205C51.1565 26.9493 51.7313 27.0718 52.2804 27.3049C53.9356 28.0021 55.0971 29.6376 55.0971 31.5417V31.5437V31.5457V36.1617H55.3854C57.9295 36.1617 59.9916 34.0996 59.9916 31.5555C59.9936 29.0115 57.9315 26.9493 55.3874 26.9493Z" fill="url(#paint10_linear_153_775)"/>
<path d="M45.7701 36.1401H45.8728V40.7067C51.0518 40.2386 55.097 36.3119 55.099 31.5378C55.097 29.6337 53.9356 28.0002 52.2824 27.303C51.7313 27.0699 51.1545 26.9475 50.5165 26.9475C50.5126 26.9475 46.0091 26.9415 46.0091 26.9415C43.5796 26.9415 41.3061 28.1899 41.2982 31.5319C41.2903 34.3742 43.0898 36.1401 45.7701 36.1401Z" fill="url(#paint11_linear_153_775)"/>
<path d="M44.83 40.7542H36.6289V49.9745H44.83C50.5008 49.9745 55.0971 45.8463 55.0971 40.7542V31.5339C55.0991 36.626 50.5008 40.7542 44.83 40.7542ZM41.4603 47.1657C40.4588 47.1657 39.647 46.3539 39.647 45.3525C39.647 44.3511 40.4588 43.5392 41.4603 43.5392C42.4617 43.5392 43.2735 44.3511 43.2735 45.3525C43.2755 46.3519 42.4637 47.1657 41.4603 47.1657Z" fill="url(#paint12_linear_153_775)"/>
<path d="M36.6309 54.1523V43.5454C36.6309 43.5454 36.6249 41.7756 36.6249 40.6892C36.6249 38.1669 34.5747 36.1226 32.0464 36.1226H27.5963C25.068 36.1226 22.84 37.8904 22.8321 40.7564C22.8242 43.3834 24.9673 45.1335 27.4047 45.2362V54.1503C27.4047 59.3589 31.5348 63.5819 36.6309 63.5819H45.857C40.761 63.5839 36.6309 59.3609 36.6309 54.1523Z" fill="url(#paint13_linear_153_775)"/>
<path d="M24.1871 36.2704L23.8592 35.6817C22.8598 33.3629 22.3008 30.7892 22.3008 28.1602C22.3008 19.6174 29.2515 12.6666 37.7943 12.6666C41.4741 12.6666 45.6379 13.9841 48.4387 16.378C51.2079 18.7443 53.0646 22.0133 53.6651 25.5805L53.7816 26.2719H50.2717L50.1769 25.7958C49.0569 20.2001 43.5066 16.1371 37.7963 16.1371C31.1675 16.1371 25.7732 21.5314 25.7732 28.1602C25.7732 30.2598 26.2196 32.3752 26.984 34.149L27.3869 34.8482L26.5988 35.024C25.9075 35.1781 25.2794 35.4625 24.7303 35.8694L24.1871 36.2704Z" fill="url(#paint14_linear_153_775)"/>
<defs>
<filter id="filter0_d_153_775" x="0.7" y="0.38811" width="75.9118" height="75.9119" filterUnits="userSpaceOnUse" color-interpolation-filters="sRGB">
<feFlood flood-opacity="0" result="BackgroundImageFix"/>
<feColorMatrix in="SourceAlpha" type="matrix" values="0 0 0 0 0 0 0 0 0 0 0 0 0 0 0 0 0 0 127 0" result="hardAlpha"/>
<feOffset dx="-2" dy="2"/>
<feGaussianBlur stdDeviation="2.15"/>
<feComposite in2="hardAlpha" operator="out"/>
<feColorMatrix type="matrix" values="0 0 0 0 0 0 0 0 0 0 0 0 0 0 0 0 0 0 0.25 0"/>
<feBlend mode="normal" in2="BackgroundImageFix" result="effect1_dropShadow_153_775"/>
<feBlend mode="normal" in="SourceGraphic" in2="effect1_dropShadow_153_775" result="shape"/>
</filter>
<linearGradient id="paint0_linear_153_775" x1="68" y1="3.66667" x2="41" y2="68" gradientUnits="userSpaceOnUse">
<stop offset="0.0769345" stop-color="white" stop-opacity="0"/>
<stop offset="0.45" stop-color="white"/>
</linearGradient>
<linearGradient id="paint1_linear_153_775" x1="26.9354" y1="28.6454" x2="49.0617" y2="28.6454" gradientUnits="userSpaceOnUse">
<stop stop-color="#2B2B65"/>
<stop offset="1" stop-color="#1D70B6"/>
</linearGradient>
<linearGradient id="paint2_linear_153_775" x1="33.7682" y1="28.6455" x2="42.1098" y2="28.6455" gradientUnits="userSpaceOnUse">
<stop stop-color="#2B2B65"/>
<stop offset="1" stop-color="#1D70B6"/>
</linearGradient>
<linearGradient id="paint3_linear_153_775" x1="33.8148" y1="24.5998" x2="42.0361" y2="24.5998" gradientUnits="userSpaceOnUse">
<stop stop-color="#2B2B65"/>
<stop offset="1" stop-color="#1D70B6"/>
</linearGradient>
<linearGradient id="paint4_linear_153_775" x1="33.7684" y1="28.6455" x2="42.1098" y2="28.6455" gradientUnits="userSpaceOnUse">
<stop stop-color="#2B2B65"/>
<stop offset="1" stop-color="#1D70B6"/>
</linearGradient>
<linearGradient id="paint5_linear_153_775" x1="41.7637" y1="36.3491" x2="60.1555" y2="36.3491" gradientUnits="userSpaceOnUse">
<stop stop-color="#2B2B65"/>
<stop offset="1" stop-color="#35A7DF"/>
</linearGradient>
<linearGradient id="paint6_linear_153_775" x1="58.9412" y1="51.7185" x2="54.4212" y2="50.5798" gradientUnits="userSpaceOnUse">
<stop stop-color="#2B2B65"/>
<stop offset="1" stop-color="#1D70B6"/>
</linearGradient>
<linearGradient id="paint7_linear_153_775" x1="61.0569" y1="47.7621" x2="58.8767" y2="52.3714" gradientUnits="userSpaceOnUse">
<stop stop-color="#2B2B65"/>
<stop offset="1" stop-color="#1D70B6"/>
</linearGradient>
<linearGradient id="paint8_linear_153_775" x1="61.2334" y1="22.6935" x2="60.2552" y2="26.576" gradientUnits="userSpaceOnUse">
<stop stop-color="#2B2B65"/>
<stop offset="1" stop-color="#1D70B6"/>
</linearGradient>
<linearGradient id="paint9_linear_153_775" x1="57.835" y1="20.8763" x2="61.7943" y2="22.7491" gradientUnits="userSpaceOnUse">
<stop stop-color="#2B2B65"/>
<stop offset="1" stop-color="#1D70B6"/>
</linearGradient>
<linearGradient id="paint10_linear_153_775" x1="50.521" y1="31.556" x2="59.9936" y2="31.556" gradientUnits="userSpaceOnUse">
<stop stop-color="#2B2B65"/>
<stop offset="1" stop-color="#35A7DF"/>
</linearGradient>
<linearGradient id="paint11_linear_153_775" x1="41.2974" y1="33.8255" x2="55.0986" y2="33.8255" gradientUnits="userSpaceOnUse">
<stop stop-color="#2B2B65"/>
<stop offset="1" stop-color="#1D70B6"/>
</linearGradient>
<linearGradient id="paint12_linear_153_775" x1="36.6295" y1="40.7542" x2="55.0983" y2="40.7542" gradientUnits="userSpaceOnUse">
<stop stop-color="#2E4B82"/>
<stop offset="0.2451" stop-color="#30679E"/>
<stop offset="0.7253" stop-color="#35A7DF"/>
</linearGradient>
<linearGradient id="paint13_linear_153_775" x1="34.344" y1="59.1946" x2="34.344" y2="37.6331" gradientUnits="userSpaceOnUse">
<stop stop-color="#006633"/>
<stop offset="1" stop-color="#92BF1F"/>
</linearGradient>
<linearGradient id="paint14_linear_153_775" x1="22.3012" y1="24.4683" x2="53.781" y2="24.4683" gradientUnits="userSpaceOnUse">
<stop stop-color="#2B2B65"/>
<stop offset="1" stop-color="#1D70B6"/>
</linearGradient>
</defs>
</svg>
